<svg version="1.1" id="Layer_1" xmlns="http://www.w3.org/2000/svg" xmlns:xlink="http://www.w3.org/1999/xlink" x="0px" y="0px"
	 width="100%" viewBox="0 0 1200 630" enable-background="new 0 0 1200 630" xml:space="preserve">
<path fill="#FEFFFF" opacity="1.000000" stroke="none" 
	d="
M701.000000,631.000000 
	C467.333344,631.000000 234.166687,631.000000 1.000031,631.000000 
	C1.000021,421.000031 1.000021,211.000046 1.000010,1.000060 
	C400.999969,1.000040 800.999939,1.000040 1201.000000,1.000020 
	C1201.000000,210.999939 1201.000000,420.999878 1201.000000,630.999878 
	C1034.500000,631.000000 868.000000,631.000000 701.000000,631.000000 
M702.037720,237.862473 
	C695.544739,244.445190 689.051819,251.027908 681.948059,257.868256 
	C670.387634,269.391876 658.684448,280.776581 647.303284,292.474579 
	C633.401917,306.762848 633.701172,326.575409 647.788025,340.683990 
	C668.732605,361.660919 689.716431,382.598663 710.691528,403.545105 
	C732.479736,425.303619 754.036682,447.301361 776.157104,468.716888 
	C790.505127,482.607758 810.187744,481.856628 824.373413,467.701904 
	C866.701599,425.466064 908.987915,383.188293 951.255554,340.891937 
	C963.365051,328.774139 965.402649,314.084717 957.138916,298.928467 
	C955.922913,296.698334 955.502380,295.108704 957.177490,292.670197 
	C961.584045,286.255554 961.079834,280.097015 955.610229,274.548157 
	C938.307739,256.994934 920.853516,239.590988 903.413391,222.174011 
	C899.023987,217.790482 893.186218,215.500122 887.978882,218.737747 
	C882.140930,222.367493 879.123901,220.151352 875.724487,216.065872 
	C874.770386,214.919235 873.647461,213.911697 872.588623,212.853775 
	C856.103699,196.381927 839.789551,179.734222 823.075745,163.497879 
	C809.386414,150.199615 789.183350,150.727783 775.519714,164.194901 
	C772.553040,167.118866 769.608765,170.065979 766.682861,173.030685 
	C754.995361,184.873444 743.319275,196.727325 731.022949,208.838913 
	C721.564758,218.423538 712.106567,228.008179 702.037720,237.862473 
M1068.673950,341.109039 
	C1069.081055,341.103027 1069.488037,341.097046 1070.073120,341.733856 
	C1079.797607,351.526428 1089.429321,361.413574 1099.277466,371.080200 
	C1106.499023,378.168579 1112.884521,378.000122 1120.056274,370.857819 
	C1135.132568,355.843506 1150.192871,340.813019 1165.209717,325.739319 
	C1170.764893,320.163086 1170.979004,312.708862 1165.450073,307.118500 
	C1149.897705,291.393311 1134.246704,275.764191 1118.503540,260.229858 
	C1112.956421,254.756470 1105.933838,254.912201 1100.385864,260.349304 
	C1093.138916,267.451294 1086.024902,274.688782 1078.832886,281.847015 
	C1075.594360,285.070374 1072.305420,288.243011 1069.102905,291.376312 
	C1061.101440,284.575287 1060.008789,284.624054 1052.968872,291.656555 
	C1046.613037,298.005615 1040.232788,304.330719 1033.930298,310.732361 
	C1029.802734,314.924896 1029.746826,317.444458 1033.935669,321.753143 
	C1040.543335,328.549957 1047.310547,335.191772 1054.014038,341.895477 
	C1059.919189,347.801025 1062.863892,347.615112 1068.673950,341.109039 
M158.972336,316.553833 
	C159.011230,313.723297 158.865845,310.876099 159.120697,308.065125 
	C160.266525,295.426422 169.960709,287.447174 183.219940,288.106598 
	C194.083969,288.646851 199.593765,295.565521 199.692795,308.798553 
	C199.706497,310.630432 199.701202,312.462463 199.701294,314.294403 
	C199.701920,326.424500 199.701630,338.554565 199.701630,350.898499 
	C202.722061,350.898499 205.339966,350.898499 208.316223,350.898499 
	C208.316223,348.935242 208.295563,347.122040 208.319550,345.309418 
	C208.484756,332.825470 208.135391,320.306519 208.968811,307.866974 
	C209.924103,293.608643 223.832443,284.811066 237.455765,289.142395 
	C243.291916,290.997894 247.361145,294.744293 248.185165,301.011963 
	C248.789352,305.607452 248.950394,310.283417 248.991608,314.926331 
	C249.097565,326.865051 249.027008,338.805389 249.027008,350.694336 
	C252.257965,350.694336 254.955673,350.694336 257.776276,350.694336 
	C257.776276,334.813477 258.068146,319.335449 257.678894,303.874573 
	C257.395477,292.617157 251.710800,284.585358 242.336945,282.359802 
	C237.133575,281.124420 231.442688,281.054657 226.081238,281.579681 
	C217.910004,282.379913 211.339462,286.739441 206.362823,293.738159 
	C201.266983,284.185669 193.404800,280.994049 183.746017,280.782562 
	C174.199936,280.573578 166.192062,284.063660 159.153961,291.158081 
	C158.987717,287.777222 158.868820,285.359161 158.751266,282.968567 
	C155.711884,282.968567 153.111313,282.968567 150.538147,282.968567 
	C150.538147,305.808624 150.538147,328.343994 150.538147,350.774658 
	C153.508652,350.774658 156.090912,350.774658 158.972427,350.774658 
	C158.972427,339.469330 158.972427,328.503906 158.972336,316.553833 
M440.395966,340.896484 
	C447.215912,332.707611 449.106110,323.080994 448.221436,312.807159 
	C447.063080,299.355347 441.131958,288.622833 428.144470,283.669830 
	C413.727936,278.171814 399.431946,278.922485 387.397369,289.669739 
	C372.726410,302.771332 372.299805,328.968872 385.970673,342.948364 
	C399.805176,357.095154 425.888550,356.365906 440.395966,340.896484 
M319.066071,317.344635 
	C315.630951,316.129883 312.268890,314.610504 308.745087,313.765503 
	C301.962463,312.139069 295.021118,311.152893 288.275940,309.399750 
	C283.821320,308.241943 279.671570,305.966675 279.517303,300.472992 
	C279.365479,295.065796 282.749268,292.049469 287.373291,290.058960 
	C300.439026,284.434570 312.573700,289.147583 318.696777,302.572937 
	C321.245453,302.388885 323.932190,302.194824 326.618927,302.000793 
	C325.624359,294.014313 322.097229,288.483765 315.830994,284.695557 
	C305.522552,278.463776 286.417114,279.488708 276.878326,286.819641 
	C267.013733,294.400940 268.148010,309.527679 279.199371,315.116241 
	C282.709137,316.891083 286.634003,317.995880 290.487305,318.906250 
	C296.794373,320.396332 303.270874,321.196930 309.537140,322.823120 
	C314.023956,323.987488 317.910126,326.468536 318.332123,331.823853 
	C318.755920,337.202484 315.813751,340.848511 311.264862,342.821228 
	C301.831024,346.912415 292.370850,346.729156 283.713684,340.801453 
	C281.267151,339.126251 279.234131,336.257172 278.019684,333.492737 
	C275.314453,327.334625 275.573822,327.220703 268.349152,328.604523 
	C268.224762,337.076477 272.117340,344.187897 279.535034,348.293579 
	C290.753540,354.502838 302.653809,354.786133 314.281189,350.288849 
	C329.235413,344.504852 331.815094,327.373840 319.066071,317.344635 
M24.478752,331.117554 
	C25.966984,340.489716 31.249586,346.993805 39.967129,350.360657 
	C50.129414,354.285522 60.573956,354.136505 70.721886,350.351746 
	C76.903290,348.046387 81.384422,343.541565 83.068550,336.890350 
	C85.853630,325.891083 80.095055,317.268555 67.737007,314.261841 
	C59.832256,312.338562 51.755306,311.111237 43.875866,309.100464 
	C39.531803,307.991852 35.798729,305.441681 35.871113,300.176422 
	C35.941414,295.062866 39.102684,292.010864 43.544888,290.121887 
	C56.764145,284.500580 68.456596,289.004059 75.218262,302.475586 
	C77.691780,302.332062 80.264572,302.182770 83.614342,301.988403 
	C82.124039,298.089996 81.353500,294.594604 79.588272,291.707336 
	C70.919426,277.528473 39.771645,276.681000 30.052790,290.214752 
	C22.619705,300.565460 27.009691,313.168579 39.899811,316.970581 
	C47.841698,319.313110 56.142307,320.420776 64.250313,322.224640 
	C70.787994,323.679108 74.772835,327.660645 74.876572,332.507416 
	C74.980186,337.347931 71.118797,341.943420 65.266533,343.944489 
	C50.302872,349.061005 37.974823,343.198364 32.412327,328.206299 
	C31.654036,328.140900 30.833939,328.036163 30.011217,328.007965 
	C29.013411,327.973755 27.885118,327.712372 27.046984,328.080841 
	C26.013994,328.535065 25.221811,329.536987 24.478752,331.117554 
M473.802429,335.575378 
	C466.854553,325.374908 465.876495,314.563721 470.960052,303.384796 
	C475.319458,293.798218 483.400146,289.347748 493.558380,288.597137 
	C502.547943,287.932922 510.466644,290.347687 515.672852,298.345001 
	C517.266724,300.793427 518.274292,303.623596 519.670898,306.529785 
	C522.479431,305.998199 525.183838,305.486298 527.917114,304.968964 
	C523.056335,286.992249 508.541840,278.205048 488.974457,281.038879 
	C469.985809,283.788940 458.221466,298.513611 458.790222,318.818604 
	C459.323669,337.863037 471.752228,351.185120 490.550140,352.861816 
	C510.217010,354.616028 525.122314,344.743164 528.680115,327.297211 
	C525.950745,326.896393 523.244324,326.498932 520.862854,326.149170 
	C519.138550,329.422607 517.865784,332.328064 516.175537,334.966034 
	C506.997772,349.289703 483.307251,347.731873 473.802429,335.575378 
M336.036865,289.498932 
	C339.116638,289.498932 342.196411,289.498932 345.619568,289.498932 
	C345.619568,292.169556 345.614685,293.979889 345.620392,295.790131 
	C345.665985,310.276062 345.757935,324.762085 345.736420,339.247925 
	C345.728882,344.305389 348.024841,347.928497 352.379395,350.088837 
	C357.989929,352.872284 363.798187,352.521149 369.562317,350.883698 
	C369.562317,348.227997 369.562317,346.131378 369.562317,343.998016 
	C368.859985,343.859467 368.370972,343.633026 367.920074,343.693024 
	C356.153198,345.259460 353.972504,340.674652 354.086121,330.054230 
	C354.189392,320.397339 354.114960,310.738556 354.118073,301.080597 
	C354.119263,297.328125 354.118256,293.575623 354.118256,289.252441 
	C359.712555,289.252441 364.611847,289.252441 369.538513,289.252441 
	C369.538513,286.562531 369.538513,284.466003 369.538513,281.823181 
	C364.391754,281.823181 359.488586,281.823181 354.160217,281.823181 
	C354.160217,277.528137 354.160217,273.766449 354.160217,269.763489 
	C351.153046,269.763489 348.598328,269.763489 345.555450,269.763489 
	C345.555450,273.802612 345.555450,277.561035 345.555450,281.895813 
	C341.515839,281.895813 337.939056,281.895813 333.430969,281.895813 
	C334.114929,284.856812 334.634277,287.105286 336.036865,289.498932 
M984.986328,325.511017 
	C987.914978,328.451782 990.839172,331.396912 993.773254,334.332275 
	C997.315430,337.876007 999.305176,337.894531 1002.952576,334.318451 
	C1007.574158,329.787201 1012.117920,325.176178 1016.762390,320.668823 
	C1019.674438,317.842773 1020.039795,315.061096 1017.055115,312.080414 
	C1012.242310,307.274017 1007.437256,302.459717 1002.645325,297.632538 
	C999.706421,294.672058 996.925049,294.855255 994.069092,297.816223 
	C990.843628,301.160217 987.571838,304.465424 984.202026,307.663025 
	C975.109680,316.290833 975.638855,316.467773 984.986328,325.511017 
M587.082642,291.539062 
	C590.319946,288.877838 593.557251,286.216644 596.794495,283.555420 
	C592.136108,282.758636 586.843689,281.633148 583.896973,283.759094 
	C572.879028,291.708221 562.629150,300.721832 551.804443,309.570587 
	C562.383850,321.876984 573.054871,333.536407 582.778381,345.938690 
	C587.221191,351.605469 592.042358,351.500549 598.579346,350.718964 
	C586.761414,337.005249 575.419617,323.844025 563.902405,310.479218 
	C571.608948,304.185974 579.074219,298.089752 587.082642,291.539062 
M537.233337,347.262848 
	C537.296997,354.807159 542.649902,349.538574 545.542114,351.335815 
	C545.542114,321.983490 545.542114,293.342743 545.542114,264.638336 
	C542.606201,264.638336 540.063721,264.638336 537.228271,264.638336 
	C537.228271,292.135284 537.228271,319.222412 537.233337,347.262848 
M122.966919,294.515808 
	C122.966919,313.282440 122.966919,332.049072 122.966919,350.922668 
	C126.083626,350.922668 128.545471,350.922668 131.170990,350.922668 
	C131.170990,328.184479 131.170990,305.631287 131.170990,282.938751 
	C128.402496,282.938751 125.966522,282.938751 122.966972,282.938751 
	C122.966972,286.611938 122.966972,290.066650 122.966919,294.515808 
z"/>
<path fill="#05ABE4" opacity="1.000000" stroke="none" 
	d="
M1068.068359,341.019043 
	C1062.863892,347.615112 1059.919189,347.801025 1054.014038,341.895477 
	C1047.310547,335.191772 1040.543335,328.549957 1033.935669,321.753143 
	C1029.746826,317.444458 1029.802734,314.924896 1033.930298,310.732361 
	C1040.232788,304.330719 1046.613037,298.005615 1052.968872,291.656555 
	C1060.008789,284.624054 1061.101440,284.575287 1069.102905,291.376312 
	C1072.305420,288.243011 1075.594360,285.070374 1078.832886,281.847015 
	C1086.024902,274.688782 1093.138916,267.451294 1100.385864,260.349304 
	C1105.933838,254.912201 1112.956421,254.756470 1118.503540,260.229858 
	C1134.246704,275.764191 1149.897705,291.393311 1165.450073,307.118500 
	C1170.979004,312.708862 1170.764893,320.163086 1165.209717,325.739319 
	C1150.192871,340.813019 1135.132568,355.843506 1120.056274,370.857819 
	C1112.884521,378.000122 1106.499023,378.168579 1099.277466,371.080200 
	C1089.429321,361.413574 1079.797607,351.526428 1070.036499,341.063019 
	C1075.587891,334.509369 1081.140381,328.592133 1086.775513,322.754700 
	C1091.317993,318.049042 1091.360962,314.228577 1086.902832,309.415955 
	C1081.310181,303.378510 1075.789673,297.274109 1069.622681,290.525299 
	C1062.785156,297.834778 1057.002686,303.899353 1051.400146,310.125885 
	C1050.510010,311.115295 1050.235596,312.802643 1050.010498,314.220337 
	C1049.256226,318.970062 1050.677368,322.696442 1054.385620,326.137665 
	C1059.309448,330.706940 1063.540039,336.023499 1068.068359,341.019043 
z"/>
<path fill="#0EABE1" opacity="1.000000" stroke="none" 
	d="
M731.638916,208.577087 
	C743.319275,196.727325 754.995361,184.873444 766.682861,173.030685 
	C769.608765,170.065979 772.553040,167.118866 775.519714,164.194901 
	C789.183350,150.727783 809.386414,150.199615 823.075745,163.497879 
	C839.789551,179.734222 856.103699,196.381927 872.588623,212.853775 
	C873.647461,213.911697 874.770386,214.919235 875.724487,216.065872 
	C879.123901,220.151352 882.140930,222.367493 887.978882,218.737747 
	C893.186218,215.500122 899.023987,217.790482 903.413391,222.174011 
	C920.853516,239.590988 938.307739,256.994934 955.610229,274.548157 
	C961.079834,280.097015 961.584045,286.255554 957.177490,292.670197 
	C955.502380,295.108704 955.922913,296.698334 957.138916,298.928467 
	C965.402649,314.084717 963.365051,328.774139 951.255554,340.891937 
	C908.987915,383.188293 866.701599,425.466064 824.373413,467.701904 
	C810.187744,481.856628 790.505127,482.607758 776.157104,468.716888 
	C754.036682,447.301361 732.479736,425.303619 710.691528,403.545105 
	C689.716431,382.598663 668.732605,361.660919 647.788025,340.683990 
	C633.701172,326.575409 633.401917,306.762848 647.303284,292.474579 
	C658.684448,280.776581 670.387634,269.391876 682.384705,257.856079 
	C682.821350,257.843872 683.082458,258.078613 683.047729,258.436768 
	C682.531677,259.604126 682.189087,260.549744 681.547913,261.201782 
	C673.723206,269.159180 665.854675,277.073425 657.692871,285.150208 
	C654.310669,288.419861 651.032593,291.373077 648.259766,294.742065 
	C647.228638,295.994934 647.380371,298.221283 646.920410,300.371765 
	C642.253235,301.579193 641.526123,305.613007 640.013794,309.424500 
	C640.336365,314.896362 640.666931,319.948639 641.037109,325.364746 
	C645.199280,334.298553 649.625122,342.576477 659.050415,346.634613 
	C660.339661,347.189697 661.777344,348.286499 662.334656,349.503937 
	C664.929138,355.172729 669.154724,359.331848 674.192383,363.271973 
	C677.256531,365.362640 680.128296,367.182556 682.999146,369.389740 
	C683.333069,371.184479 683.667725,372.591919 684.314819,374.156494 
	C687.854797,377.380890 691.100830,380.429047 694.304932,383.520630 
	C697.557007,386.658508 700.767761,389.839264 704.160278,393.315552 
	C706.546082,394.422302 708.768127,395.214752 710.992126,396.390320 
	C712.993652,399.852264 714.993347,402.931000 717.187988,406.264160 
	C718.586975,406.346130 719.791077,406.173676 721.001343,406.376709 
	C723.448364,410.031036 723.959900,414.974854 729.194702,416.245911 
	C729.927307,415.652832 730.463623,414.825806 730.964844,413.649475 
	C728.620605,410.866730 726.311523,408.433350 724.075317,405.630127 
	C728.098816,403.324860 732.157654,404.443542 732.935974,407.713959 
	C733.769409,411.216339 734.549316,414.731476 735.404480,418.467957 
	C734.102356,418.857910 732.632263,419.298126 730.288696,419.999908 
	C735.700684,424.919250 740.547180,429.324524 745.581055,433.900208 
	C750.239136,426.808319 742.082153,425.146973 740.256226,420.938843 
	C745.924805,419.389465 748.329895,420.785339 749.018188,425.782349 
	C749.956604,432.596344 753.462219,436.066284 760.337463,436.986877 
	C765.123962,437.627838 766.348694,439.586548 765.171265,444.098846 
	C759.489075,441.057495 753.700562,437.959198 747.912109,434.860931 
	C747.572815,435.295593 747.233582,435.730255 746.894348,436.164917 
	C753.160767,442.361176 759.427246,448.557434 765.727173,454.786896 
	C772.020081,450.769653 776.654358,450.722778 780.098389,454.668457 
	C783.660950,458.749878 783.442444,463.129120 779.713745,469.687683 
	C782.317810,469.016357 784.921936,468.345032 787.501831,467.679932 
	C788.922180,474.671448 792.834473,476.986603 800.697021,475.319519 
	C800.697021,473.996918 800.697021,472.638275 800.697021,471.021790 
	C807.233704,476.302887 807.233704,476.302887 813.827026,471.976135 
	C812.951172,470.880951 812.092285,469.806976 811.233398,468.733032 
	C811.361755,468.269958 811.490051,467.806915 811.618408,467.343872 
	C813.270020,467.583801 814.916748,467.868988 816.574890,468.048462 
	C817.770752,468.177887 819.512085,468.699677 820.091614,468.123199 
	C822.268494,465.957642 824.068542,463.413361 826.329468,460.966858 
	C827.434387,459.951752 828.219666,458.980774 829.387329,457.999084 
	C831.235046,456.314880 832.700378,454.641418 834.165710,452.967957 
	C834.313293,453.108948 834.460876,453.249969 834.608398,453.390991 
	C837.072266,450.927307 839.536133,448.463654 842.296509,445.856903 
	C843.398621,444.478485 844.204163,443.243134 845.362793,441.969482 
	C849.740295,438.268372 853.787476,434.629730 857.750793,430.901947 
	C858.110779,430.563324 857.931763,429.651672 858.001587,429.003052 
	C858.000000,429.000000 858.004700,429.001892 858.223694,428.893982 
	C858.715271,428.586823 858.903870,428.326721 859.274414,427.885956 
	C860.030090,427.180908 860.519897,426.595642 861.355957,425.972961 
	C866.134033,421.624084 870.565796,417.312653 875.286499,412.859924 
	C876.053528,411.814880 876.531616,410.911102 877.354248,409.971252 
	C881.467468,405.958893 885.236145,401.982605 889.339355,397.973389 
	C891.116821,396.627655 892.559753,395.314850 894.316467,393.845062 
	C898.752747,389.457550 902.875183,385.227051 907.286865,380.856689 
	C908.053711,379.813904 908.531372,378.910980 909.353577,377.972076 
	C913.801147,373.626465 917.904236,369.316864 922.328308,364.961884 
	C923.767029,363.945435 924.884705,362.974365 926.306580,361.853821 
	C930.407166,357.803345 934.203552,353.902283 938.305908,349.843750 
	C939.076172,348.460785 939.540466,347.235229 940.002441,346.004822 
	C940.000000,346.000000 940.008728,346.003906 940.257385,346.004913 
	C940.506042,346.005920 941.003357,346.004883 941.349548,345.970276 
	C943.813599,344.180511 945.931458,342.425385 947.551086,341.083191 
	C946.528992,338.849609 945.806091,337.269806 945.083191,335.690033 
	C945.597412,335.445007 946.111572,335.200012 946.625793,334.954987 
	C947.331055,335.721436 948.036255,336.487885 948.813293,337.332397 
	C951.821655,335.483002 957.123230,334.382355 950.771667,329.873199 
	C950.289185,329.530579 951.016541,327.483734 951.075073,327.038940 
	C953.475952,328.060120 955.122253,328.760345 956.768616,329.460571 
	C956.863953,328.022186 957.567627,326.207092 956.950195,325.210022 
	C954.136536,320.665924 954.119324,320.520111 960.293274,319.927063 
	C959.910278,316.870178 960.607849,312.871307 958.928589,310.952698 
	C954.984497,306.446503 955.509277,300.970978 953.942017,295.632874 
	C951.534729,292.607086 949.274658,289.803711 946.746765,287.267181 
	C926.186157,266.636475 905.549316,246.081726 885.014771,225.425201 
	C882.602844,222.998840 880.896667,222.610260 878.630737,225.548187 
	C877.495728,227.019806 875.601929,227.906204 874.072998,228.685364 
	C875.972595,223.726227 874.750122,218.126953 871.147400,215.225311 
	C867.783447,212.516022 864.338074,209.908020 860.963562,207.211670 
	C859.823242,206.300522 858.789917,205.255447 857.707703,204.271576 
	C857.087769,205.749435 856.467896,207.227310 855.476196,209.591736 
	C853.216858,207.436768 851.103210,205.420746 848.146057,202.600159 
	C850.855835,202.252167 852.405762,202.374115 853.609741,201.786819 
	C854.426453,201.388458 854.757446,199.994339 855.305664,199.045563 
	C850.472412,198.390945 849.062378,191.565002 842.739319,192.789154 
	C837.662659,193.771988 834.537476,190.660782 833.344421,185.432800 
	C835.513977,185.432800 837.624390,185.432800 839.734802,185.432800 
	C839.895447,185.006729 840.056091,184.580673 840.216675,184.154602 
	C839.018433,183.423691 837.800781,182.722244 836.627747,181.952881 
	C835.624390,181.294846 833.790283,180.494064 833.836304,179.867630 
	C834.214783,174.719528 830.885132,175.274918 827.373413,175.845886 
	C827.331055,171.121872 824.873169,168.758469 820.635132,168.569458 
	C820.814087,167.165497 821.360535,165.465576 821.008301,165.252747 
	C815.894409,162.162323 810.955017,157.717880 805.392151,156.661972 
	C794.476440,154.590042 784.881958,159.039398 777.024414,166.861176 
	C773.705383,170.165131 770.612610,173.696045 767.298828,177.005508 
	C761.579651,182.717239 755.768005,188.336487 749.693420,194.142822 
	C746.258728,197.524582 743.125732,200.758041 739.664551,204.042053 
	C736.349487,204.929901 736.709900,210.639542 731.966309,208.955246 
	C731.856201,208.830032 731.638916,208.577087 731.638916,208.577087 
M777.119446,459.684998 
	C776.306458,458.856934 775.631104,457.693878 774.644470,457.288361 
	C773.494263,456.815674 772.071960,457.005280 770.767700,456.907501 
	C771.095703,458.022552 771.174927,459.309875 771.803101,460.217102 
	C773.147156,462.158295 774.775024,463.902954 776.286621,465.728119 
	C776.711792,465.682831 777.136902,465.637512 777.562073,465.592224 
	C777.562073,463.828522 777.562073,462.064819 777.119446,459.684998 
M841.366394,189.440079 
	C841.058899,189.828430 840.751404,190.216782 840.443848,190.605103 
	C840.820435,190.805511 841.197021,191.005920 841.573669,191.206314 
	C841.633423,190.749557 841.693176,190.292801 841.366394,189.440079 
M842.297974,186.429657 
	C842.011108,186.703644 841.724182,186.977646 841.437317,187.251648 
	C841.550903,187.370377 841.756958,187.598541 841.764709,187.591995 
	C842.067261,187.336288 842.351746,187.059265 842.297974,186.429657 
z"/>
<path fill="#33363C" opacity="1.000000" stroke="none" 
	d="
M158.972382,317.046173 
	C158.972427,328.503906 158.972427,339.469330 158.972427,350.774658 
	C156.090912,350.774658 153.508652,350.774658 150.538147,350.774658 
	C150.538147,328.343994 150.538147,305.808624 150.538147,282.968567 
	C153.111313,282.968567 155.711884,282.968567 158.751266,282.968567 
	C158.868820,285.359161 158.987717,287.777222 159.153961,291.158081 
	C166.192062,284.063660 174.199936,280.573578 183.746017,280.782562 
	C193.404800,280.994049 201.266983,284.185669 206.362823,293.738159 
	C211.339462,286.739441 217.910004,282.379913 226.081238,281.579681 
	C231.442688,281.054657 237.133575,281.124420 242.336945,282.359802 
	C251.710800,284.585358 257.395477,292.617157 257.678894,303.874573 
	C258.068146,319.335449 257.776276,334.813477 257.776276,350.694336 
	C254.955673,350.694336 252.257965,350.694336 249.027008,350.694336 
	C249.027008,338.805389 249.097565,326.865051 248.991608,314.926331 
	C248.950394,310.283417 248.789352,305.607452 248.185165,301.011963 
	C247.361145,294.744293 243.291916,290.997894 237.455765,289.142395 
	C223.832443,284.811066 209.924103,293.608643 208.968811,307.866974 
	C208.135391,320.306519 208.484756,332.825470 208.319550,345.309418 
	C208.295563,347.122040 208.316223,348.935242 208.316223,350.898499 
	C205.339966,350.898499 202.722061,350.898499 199.701630,350.898499 
	C199.701630,338.554565 199.701920,326.424500 199.701294,314.294403 
	C199.701202,312.462463 199.706497,310.630432 199.692795,308.798553 
	C199.593765,295.565521 194.083969,288.646851 183.219940,288.106598 
	C169.960709,287.447174 160.266525,295.426422 159.120697,308.065125 
	C158.865845,310.876099 159.011230,313.723297 158.972382,317.046173 
z"/>
<path fill="#35373D" opacity="1.000000" stroke="none" 
	d="
M440.165955,341.168030 
	C425.888550,356.365906 399.805176,357.095154 385.970673,342.948364 
	C372.299805,328.968872 372.726410,302.771332 387.397369,289.669739 
	C399.431946,278.922485 413.727936,278.171814 428.144470,283.669830 
	C441.131958,288.622833 447.063080,299.355347 448.221436,312.807159 
	C449.106110,323.080994 447.215912,332.707611 440.165955,341.168030 
M428.927734,293.439270 
	C410.615784,281.220947 388.400085,290.528381 385.493713,312.253052 
	C382.512177,334.539734 398.448517,349.635406 420.098450,344.360687 
	C430.083679,341.927917 436.395660,335.179352 438.345490,325.254395 
	C440.647705,313.535736 439.850250,302.260406 428.927734,293.439270 
z"/>
<path fill="#35373D" opacity="1.000000" stroke="none" 
	d="
M319.369263,317.550354 
	C331.815094,327.373840 329.235413,344.504852 314.281189,350.288849 
	C302.653809,354.786133 290.753540,354.502838 279.535034,348.293579 
	C272.117340,344.187897 268.224762,337.076477 268.349152,328.604523 
	C275.573822,327.220703 275.314453,327.334625 278.019684,333.492737 
	C279.234131,336.257172 281.267151,339.126251 283.713684,340.801453 
	C292.370850,346.729156 301.831024,346.912415 311.264862,342.821228 
	C315.813751,340.848511 318.755920,337.202484 318.332123,331.823853 
	C317.910126,326.468536 314.023956,323.987488 309.537140,322.823120 
	C303.270874,321.196930 296.794373,320.396332 290.487305,318.906250 
	C286.634003,317.995880 282.709137,316.891083 279.199371,315.116241 
	C268.148010,309.527679 267.013733,294.400940 276.878326,286.819641 
	C286.417114,279.488708 305.522552,278.463776 315.830994,284.695557 
	C322.097229,288.483765 325.624359,294.014313 326.618927,302.000793 
	C323.932190,302.194824 321.245453,302.388885 318.696777,302.572937 
	C312.573700,289.147583 300.439026,284.434570 287.373291,290.058960 
	C282.749268,292.049469 279.365479,295.065796 279.517303,300.472992 
	C279.671570,305.966675 283.821320,308.241943 288.275940,309.399750 
	C295.021118,311.152893 301.962463,312.139069 308.745087,313.765503 
	C312.268890,314.610504 315.630951,316.129883 319.369263,317.550354 
z"/>
<path fill="#35373D" opacity="1.000000" stroke="none" 
	d="
M24.402153,330.709869 
	C25.221811,329.536987 26.013994,328.535065 27.046984,328.080841 
	C27.885118,327.712372 29.013411,327.973755 30.011217,328.007965 
	C30.833939,328.036163 31.654036,328.140900 32.412327,328.206299 
	C37.974823,343.198364 50.302872,349.061005 65.266533,343.944489 
	C71.118797,341.943420 74.980186,337.347931 74.876572,332.507416 
	C74.772835,327.660645 70.787994,323.679108 64.250313,322.224640 
	C56.142307,320.420776 47.841698,319.313110 39.899811,316.970581 
	C27.009691,313.168579 22.619705,300.565460 30.052790,290.214752 
	C39.771645,276.681000 70.919426,277.528473 79.588272,291.707336 
	C81.353500,294.594604 82.124039,298.089996 83.614342,301.988403 
	C80.264572,302.182770 77.691780,302.332062 75.218262,302.475586 
	C68.456596,289.004059 56.764145,284.500580 43.544888,290.121887 
	C39.102684,292.010864 35.941414,295.062866 35.871113,300.176422 
	C35.798729,305.441681 39.531803,307.991852 43.875866,309.100464 
	C51.755306,311.111237 59.832256,312.338562 67.737007,314.261841 
	C80.095055,317.268555 85.853630,325.891083 83.068550,336.890350 
	C81.384422,343.541565 76.903290,348.046387 70.721886,350.351746 
	C60.573956,354.136505 50.129414,354.285522 39.967129,350.360657 
	C31.249586,346.993805 25.966984,340.489716 24.402153,330.709869 
z"/>
<path fill="#35373D" opacity="1.000000" stroke="none" 
	d="
M474.045410,335.847321 
	C483.307251,347.731873 506.997772,349.289703 516.175537,334.966034 
	C517.865784,332.328064 519.138550,329.422607 520.862854,326.149170 
	C523.244324,326.498932 525.950745,326.896393 528.680115,327.297211 
	C525.122314,344.743164 510.217010,354.616028 490.550140,352.861816 
	C471.752228,351.185120 459.323669,337.863037 458.790222,318.818604 
	C458.221466,298.513611 469.985809,283.788940 488.974457,281.038879 
	C508.541840,278.205048 523.056335,286.992249 527.917114,304.968964 
	C525.183838,305.486298 522.479431,305.998199 519.670898,306.529785 
	C518.274292,303.623596 517.266724,300.793427 515.672852,298.345001 
	C510.466644,290.347687 502.547943,287.932922 493.558380,288.597137 
	C483.400146,289.347748 475.319458,293.798218 470.960052,303.384796 
	C465.876495,314.563721 466.854553,325.374908 474.045410,335.847321 
z"/>
<path fill="#017AB3" opacity="1.000000" stroke="none" 
	d="
M1068.371094,341.064026 
	C1063.540039,336.023499 1059.309448,330.706940 1054.385620,326.137665 
	C1050.677368,322.696442 1049.256226,318.970062 1050.010498,314.220337 
	C1050.235596,312.802643 1050.510010,311.115295 1051.400146,310.125885 
	C1057.002686,303.899353 1062.785156,297.834778 1069.622681,290.525299 
	C1075.789673,297.274109 1081.310181,303.378510 1086.902832,309.415955 
	C1091.360962,314.228577 1091.317993,318.049042 1086.775513,322.754700 
	C1081.140381,328.592133 1075.587891,334.509369 1069.947510,340.741638 
	C1069.488037,341.097046 1069.081055,341.103027 1068.371094,341.064026 
z"/>
<path fill="#313338" opacity="1.000000" stroke="none" 
	d="
M335.595276,289.426331 
	C334.634277,287.105286 334.114929,284.856812 333.430969,281.895813 
	C337.939056,281.895813 341.515839,281.895813 345.555450,281.895813 
	C345.555450,277.561035 345.555450,273.802612 345.555450,269.763489 
	C348.598328,269.763489 351.153046,269.763489 354.160217,269.763489 
	C354.160217,273.766449 354.160217,277.528137 354.160217,281.823181 
	C359.488586,281.823181 364.391754,281.823181 369.538513,281.823181 
	C369.538513,284.466003 369.538513,286.562531 369.538513,289.252441 
	C364.611847,289.252441 359.712555,289.252441 354.118256,289.252441 
	C354.118256,293.575623 354.119263,297.328125 354.118073,301.080597 
	C354.114960,310.738556 354.189392,320.397339 354.086121,330.054230 
	C353.972504,340.674652 356.153198,345.259460 367.920074,343.693024 
	C368.370972,343.633026 368.859985,343.859467 369.562317,343.998016 
	C369.562317,346.131378 369.562317,348.227997 369.562317,350.883698 
	C363.798187,352.521149 357.989929,352.872284 352.379395,350.088837 
	C348.024841,347.928497 345.728882,344.305389 345.736420,339.247925 
	C345.757935,324.762085 345.665985,310.276062 345.620392,295.790131 
	C345.614685,293.979889 345.619568,292.169556 345.619568,289.498932 
	C342.196411,289.498932 339.116638,289.498932 335.595276,289.426331 
z"/>
<path fill="#0BABE2" opacity="1.000000" stroke="none" 
	d="
M984.740234,325.256073 
	C975.638855,316.467773 975.109680,316.290833 984.202026,307.663025 
	C987.571838,304.465424 990.843628,301.160217 994.069092,297.816223 
	C996.925049,294.855255 999.706421,294.672058 1002.645325,297.632538 
	C1007.437256,302.459717 1012.242310,307.274017 1017.055115,312.080414 
	C1020.039795,315.061096 1019.674438,317.842773 1016.762390,320.668823 
	C1012.117920,325.176178 1007.574158,329.787201 1002.952576,334.318451 
	C999.305176,337.894531 997.315430,337.876007 993.773254,334.332275 
	C990.839172,331.396912 987.914978,328.451782 984.740234,325.256073 
z"/>
<path fill="#36383D" opacity="1.000000" stroke="none" 
	d="
M586.811035,291.766296 
	C579.074219,298.089752 571.608948,304.185974 563.902405,310.479218 
	C575.419617,323.844025 586.761414,337.005249 598.579346,350.718964 
	C592.042358,351.500549 587.221191,351.605469 582.778381,345.938690 
	C573.054871,333.536407 562.383850,321.876984 551.804443,309.570587 
	C562.629150,300.721832 572.879028,291.708221 583.896973,283.759094 
	C586.843689,281.633148 592.136108,282.758636 596.794495,283.555420 
	C593.557251,286.216644 590.319946,288.877838 586.811035,291.766296 
z"/>
<path fill="#3C3F44" opacity="1.000000" stroke="none" 
	d="
M537.230835,346.786194 
	C537.228271,319.222412 537.228271,292.135284 537.228271,264.638336 
	C540.063721,264.638336 542.606201,264.638336 545.542114,264.638336 
	C545.542114,293.342743 545.542114,321.983490 545.542114,351.335815 
	C542.649902,349.538574 537.296997,354.807159 537.230835,346.786194 
z"/>
<path fill="#303239" opacity="1.000000" stroke="none" 
	d="
M122.966949,294.018585 
	C122.966972,290.066650 122.966972,286.611938 122.966972,282.938751 
	C125.966522,282.938751 128.402496,282.938751 131.170990,282.938751 
	C131.170990,305.631287 131.170990,328.184479 131.170990,350.922668 
	C128.545471,350.922668 126.083626,350.922668 122.966919,350.922668 
	C122.966919,332.049072 122.966919,313.282440 122.966949,294.018585 
z"/>
<path fill="#0EABE1" opacity="1.000000" stroke="none" 
	d="
M702.648376,237.592804 
	C712.106567,228.008179 721.564758,218.423538 731.330933,208.708008 
	C731.638916,208.577087 731.856201,208.830032 731.901611,209.304001 
	C726.870972,214.363235 731.583862,217.713654 734.259827,221.321014 
	C733.793762,221.663589 733.327698,222.006180 732.861633,222.348755 
	C730.449280,220.790115 728.036926,219.231491 725.424194,217.543396 
	C723.030579,220.020233 720.609558,222.814987 717.888000,225.277725 
	C713.051331,229.654510 708.032654,233.830139 702.978516,237.966644 
	C702.867004,237.843384 702.648376,237.592789 702.648376,237.592804 
z"/>
<path fill="#0EABE1" opacity="1.000000" stroke="none" 
	d="
M682.690063,257.727234 
	C689.051819,251.027908 695.544739,244.445190 702.343018,237.727631 
	C702.648376,237.592789 702.867004,237.843384 702.911987,238.302979 
	C699.065186,243.122391 695.164551,247.474289 691.285156,251.844986 
	C688.958557,254.466156 687.515808,258.235046 683.082458,258.078613 
	C683.082458,258.078613 682.821350,257.843872 682.690063,257.727234 
z"/>
<path fill="#01ABE6" opacity="1.000000" stroke="none" 
	d="
M683.047729,258.436768 
	C687.515808,258.235046 688.958557,254.466156 691.285156,251.844986 
	C695.164551,247.474289 699.065186,243.122391 703.023499,238.426254 
	C708.032654,233.830139 713.051331,229.654510 717.888000,225.277725 
	C720.609558,222.814987 723.030579,220.020233 725.424194,217.543396 
	C728.036926,219.231491 730.449280,220.790115 732.861633,222.348755 
	C733.327698,222.006180 733.793762,221.663589 734.259827,221.321014 
	C731.583862,217.713654 726.870972,214.363235 732.011780,209.429214 
	C736.709900,210.639542 736.349487,204.929901 739.850037,204.310974 
	C741.326294,205.235199 742.289001,205.941010 743.003601,206.464951 
	C744.137817,204.775299 745.068909,203.388245 746.005859,202.377808 
	C747.341187,203.836090 748.670593,204.917740 750.377075,205.993866 
	C751.797119,205.159576 752.840149,204.330811 753.883179,203.502029 
	C752.922119,202.334671 751.961060,201.167328 751.000000,199.624146 
	C751.000793,198.496643 751.001587,197.744965 751.300293,196.955872 
	C751.916443,196.512772 752.234680,196.107086 752.552979,195.701416 
	C752.036255,195.469254 751.519531,195.237076 750.782288,194.894989 
	C750.287109,194.583023 750.098206,194.319504 749.995117,193.994522 
	C755.768005,188.336487 761.579651,182.717239 767.298828,177.005508 
	C770.612610,173.696045 773.705383,170.165131 777.024414,166.861176 
	C784.881958,159.039398 794.476440,154.590042 805.392151,156.661972 
	C810.955017,157.717880 815.894409,162.162323 821.008301,165.252747 
	C821.360535,165.465576 820.814087,167.165497 820.635132,168.569458 
	C824.873169,168.758469 827.331055,171.121872 827.373413,175.845886 
	C830.885132,175.274918 834.214783,174.719528 833.836304,179.867630 
	C833.790283,180.494064 835.624390,181.294846 836.627747,181.952881 
	C837.800781,182.722244 839.018433,183.423691 840.216675,184.154602 
	C840.056091,184.580673 839.895447,185.006729 839.734802,185.432800 
	C837.624390,185.432800 835.513977,185.432800 833.344421,185.432800 
	C834.537476,190.660782 837.662659,193.771988 842.739319,192.789154 
	C849.062378,191.565002 850.472412,198.390945 855.305664,199.045563 
	C854.757446,199.994339 854.426453,201.388458 853.609741,201.786819 
	C852.405762,202.374115 850.855835,202.252167 848.146057,202.600159 
	C851.103210,205.420746 853.216858,207.436768 855.476196,209.591736 
	C856.467896,207.227310 857.087769,205.749435 857.707703,204.271576 
	C858.789917,205.255447 859.823242,206.300522 860.963562,207.211670 
	C864.338074,209.908020 867.783447,212.516022 871.147400,215.225311 
	C874.750122,218.126953 875.972595,223.726227 874.064087,228.669220 
	C874.033447,229.024994 874.041809,229.038727 873.659424,229.030838 
	C872.198181,230.377350 871.119263,231.731750 869.942383,233.297089 
	C869.657715,233.771805 869.409546,233.949966 868.735352,234.060837 
	C867.247437,235.714645 866.124023,237.350128 864.742676,239.122696 
	C863.981079,239.840088 863.477539,240.420364 862.611328,241.004440 
	C856.411377,244.313919 851.301636,248.310089 848.760132,255.132553 
	C848.032715,255.872467 847.544128,256.449951 846.682739,257.021790 
	C845.221924,258.045532 844.133972,259.074921 842.946167,260.312531 
	C842.658386,260.780396 842.410767,260.955719 841.747375,261.061096 
	C839.943420,262.752441 838.495544,264.429474 836.925293,266.361023 
	C836.232971,267.089172 835.662903,267.562775 834.738953,268.070374 
	C833.923401,269.060486 833.461731,270.016632 832.703979,271.135010 
	C825.368958,276.811157 823.942322,283.787323 827.024109,292.317780 
	C827.537048,296.909088 829.892029,299.334839 834.372742,300.104767 
	C835.778503,301.464996 836.903870,302.685150 838.126831,304.149902 
	C838.509338,304.587372 838.794250,304.780304 839.310425,304.980255 
	C839.541687,304.987274 840.002441,305.030304 839.994263,305.422668 
	C839.661682,307.881226 839.337158,309.947418 839.006348,312.006836 
	C839.000000,312.000000 839.014587,312.011749 838.628723,312.058655 
	C834.391357,315.823090 835.113342,320.103790 839.952087,322.226746 
	C839.993652,322.459961 840.037109,322.931732 840.025024,323.346252 
	C839.645935,328.263763 841.515625,330.505768 846.513184,329.928101 
	C847.566284,330.597656 848.316772,331.230988 849.048340,332.247864 
	C851.216248,335.513611 853.646301,338.247131 855.523987,341.318359 
	C857.540405,344.616791 860.159424,346.241180 864.224060,346.149536 
	C864.667847,346.823364 864.864319,347.349365 865.044373,348.257568 
	C866.723511,350.075317 868.419128,351.510864 870.323853,353.043976 
	C870.794556,353.327454 870.970032,353.574463 871.043701,354.264587 
	C871.966309,360.258698 876.106079,362.057343 881.003784,363.214722 
	C881.037354,363.436157 881.056885,363.883728 881.041504,364.267273 
	C882.202026,366.347565 883.014221,368.599121 884.614624,369.648193 
	C892.962646,375.120239 906.882507,368.931213 909.000000,359.002441 
	C909.000000,359.000000 909.004883,359.000000 909.380615,358.994568 
	C910.840698,357.665192 911.925110,356.341217 913.004761,355.007996 
	C913.000000,354.998749 913.019470,355.008911 913.336365,354.963745 
	C914.104248,354.284973 914.555237,353.651367 915.002319,353.008881 
	C914.998535,353.000000 915.016174,353.006775 915.380615,353.000488 
	C921.644348,350.123840 926.236206,345.940399 928.973511,339.545593 
	C929.683289,338.491791 930.356323,337.750214 931.392578,337.001709 
	C937.657837,333.726898 943.005127,329.935699 945.005371,322.672485 
	C945.347717,321.914429 945.670349,321.452698 946.359375,320.931030 
	C948.012878,317.577850 949.299927,314.284546 950.832214,310.363647 
	C947.952698,310.184418 946.500610,310.094055 945.016541,309.774292 
	C944.984619,309.544952 944.961487,309.082367 944.974976,308.704651 
	C944.994019,307.575348 944.999451,306.823822 945.217346,305.942383 
	C945.689209,305.591370 945.874878,305.319885 946.361450,304.991119 
	C947.485291,303.975189 948.234497,302.966125 949.120117,301.653564 
	C950.826050,299.559753 952.395630,297.769348 953.965210,295.978943 
	C955.509277,300.970978 954.984497,306.446503 958.928589,310.952698 
	C960.607849,312.871307 959.910278,316.870178 960.293274,319.927063 
	C954.119324,320.520111 954.136536,320.665924 956.950195,325.210022 
	C957.567627,326.207092 956.863953,328.022186 956.768616,329.460571 
	C955.122253,328.760345 953.475952,328.060120 951.075073,327.038940 
	C951.016541,327.483734 950.289185,329.530579 950.771667,329.873199 
	C957.123230,334.382355 951.821655,335.483002 948.813293,337.332397 
	C948.036255,336.487885 947.331055,335.721436 946.625793,334.954987 
	C946.111572,335.200012 945.597412,335.445007 945.083191,335.690033 
	C945.806091,337.269806 946.528992,338.849609 947.551086,341.083191 
	C945.931458,342.425385 943.813599,344.180511 941.260925,345.802246 
	C940.553650,345.780548 940.281189,345.892212 940.008728,346.003906 
	C940.008728,346.003906 940.000000,346.000000 939.676331,346.044556 
	C938.901794,347.393158 938.450867,348.697174 938.000000,350.001221 
	C934.203552,353.902283 930.407166,357.803345 926.144531,361.543060 
	C924.430481,361.170837 923.182617,360.959900 921.934814,360.748993 
	C921.958984,362.168427 921.983154,363.587830 922.007324,365.007263 
	C917.904236,369.316864 913.801147,373.626465 909.126099,377.702698 
	C907.114258,377.643646 905.674500,377.817963 902.862732,378.158356 
	C905.214111,379.772369 906.105896,380.384460 906.997681,380.996582 
	C902.875183,385.227051 898.752747,389.457550 894.032593,393.725861 
	C887.832275,393.160889 887.619934,393.364288 889.004883,398.006348 
	C885.236145,401.982605 881.467468,405.958893 877.116760,409.698914 
	C875.424744,409.715515 874.314758,409.968353 873.204712,410.221191 
	C873.802368,411.147827 874.399963,412.074524 874.997559,413.001190 
	C870.565796,417.312653 866.134033,421.624084 861.123169,425.699982 
	C859.104492,425.930084 857.664917,426.395721 856.225281,426.861359 
	C856.817871,427.576294 857.410461,428.291199 858.003113,429.006104 
	C857.931763,429.651672 858.110779,430.563324 857.750793,430.901947 
	C853.787476,434.629730 849.740295,438.268372 845.162842,441.721741 
	C840.891968,441.351898 840.465027,443.105469 842.000000,446.000000 
	C839.536133,448.463654 837.072266,450.927307 834.608398,453.390991 
	C834.460876,453.249969 834.313293,453.108948 834.165710,452.967957 
	C832.700378,454.641418 831.235046,456.314880 829.334290,457.658905 
	C827.600342,457.402283 826.301880,457.475098 825.003357,457.547913 
	C825.338867,458.702271 825.674316,459.856628 826.009766,461.010986 
	C824.068542,463.413361 822.268494,465.957642 820.091614,468.123199 
	C819.512085,468.699677 817.770752,468.177887 816.574890,468.048462 
	C814.916748,467.868988 813.270020,467.583801 811.618408,467.343872 
	C811.490051,467.806915 811.361755,468.269958 811.233398,468.733032 
	C812.092285,469.806976 812.951172,470.880951 813.827026,471.976135 
	C807.233704,476.302887 807.233704,476.302887 800.697021,471.021790 
	C800.697021,472.638275 800.697021,473.996918 800.697021,475.319519 
	C792.834473,476.986603 788.922180,474.671448 787.501831,467.679932 
	C784.921936,468.345032 782.317810,469.016357 779.713745,469.687683 
	C783.442444,463.129120 783.660950,458.749878 780.098389,454.668457 
	C776.654358,450.722778 772.020081,450.769653 765.727173,454.786896 
	C759.427246,448.557434 753.160767,442.361176 746.894348,436.164917 
	C747.233582,435.730255 747.572815,435.295593 747.912109,434.860931 
	C753.700562,437.959198 759.489075,441.057495 765.171265,444.098846 
	C766.348694,439.586548 765.123962,437.627838 760.337463,436.986877 
	C753.462219,436.066284 749.956604,432.596344 749.018188,425.782349 
	C748.329895,420.785339 745.924805,419.389465 740.256226,420.938843 
	C742.082153,425.146973 750.239136,426.808319 745.581055,433.900208 
	C740.547180,429.324524 735.700684,424.919250 730.288696,419.999908 
	C732.632263,419.298126 734.102356,418.857910 735.404480,418.467957 
	C734.549316,414.731476 733.769409,411.216339 732.935974,407.713959 
	C732.157654,404.443542 728.098816,403.324860 723.699463,405.630127 
	C722.498779,406.000366 721.746948,406.000793 720.995117,406.001221 
	C719.791077,406.173676 718.586975,406.346130 717.364258,406.001526 
	C717.897888,404.655090 718.450195,403.825684 719.300659,402.958191 
	C719.917664,402.513763 720.236389,402.107361 720.555115,401.700958 
	C720.037537,401.468109 719.520020,401.235291 718.729858,400.768799 
	C717.810669,397.780792 717.325317,394.894043 713.226929,396.643921 
	C712.672974,396.880432 711.744995,396.240997 710.990234,396.007141 
	C708.768127,395.214752 706.546082,394.422302 704.566589,393.314880 
	C706.425171,392.874817 708.041199,392.749756 709.657166,392.624664 
	C709.752991,392.127838 709.848816,391.631042 709.944641,391.134216 
	C707.963074,390.088928 705.981567,389.043640 704.219788,387.844116 
	C704.442566,387.291016 704.445557,386.892181 704.448547,386.493317 
	C703.966492,386.662231 703.484497,386.831116 702.782532,386.891846 
	C702.288391,386.583710 702.100891,386.321655 701.999878,385.599548 
	C702.893005,378.690735 701.325623,374.943085 696.208130,372.153381 
	C693.080383,370.448334 690.401001,370.410919 689.697571,374.841644 
	C688.926819,373.456940 688.463440,372.228180 688.219238,370.837463 
	C688.384277,370.272614 688.330139,369.869629 688.276001,369.466675 
	C687.851501,369.976990 687.426941,370.487274 686.681335,371.039001 
	C685.574280,372.053406 684.788391,373.026398 684.002441,373.999359 
	C683.667725,372.591919 683.333069,371.184479 682.999146,369.013611 
	C683.001282,367.498108 683.002563,366.746002 683.395508,365.983215 
	C684.407043,364.449402 685.829529,362.677338 685.453064,361.463226 
	C684.926575,359.765594 683.328918,357.869049 681.706604,357.154999 
	C678.512573,355.749176 674.986145,355.098572 671.799683,354.193115 
	C672.349548,358.345520 672.371887,358.243011 676.146973,359.066833 
	C677.191345,359.294739 678.059509,360.330170 678.612183,360.996521 
	C676.810547,361.665710 675.405273,362.333466 674.000000,363.001221 
	C669.154724,359.331848 664.929138,355.172729 662.334656,349.503937 
	C661.777344,348.286499 660.339661,347.189697 659.050415,346.634613 
	C649.625122,342.576477 645.199280,334.298553 641.332397,325.239319 
	C642.392029,324.500000 643.195984,324.250000 644.177185,324.325989 
	C650.342834,325.399872 647.938416,333.000244 652.339172,334.866821 
	C654.050903,333.446686 655.549316,332.203491 657.033936,330.979614 
	C657.020081,330.998962 657.035461,330.961029 657.027344,331.334839 
	C657.607971,335.035675 659.438904,336.966858 663.126038,337.296204 
	C666.861145,340.727753 670.431946,343.859741 674.257080,347.273499 
	C683.815002,348.970367 688.489380,345.860474 689.067993,337.718842 
	C689.354187,337.232147 689.608337,337.053772 690.308716,336.974060 
	C693.693420,334.496124 697.169617,332.389160 699.549561,329.407288 
	C701.436768,327.042877 706.568359,326.779449 705.059937,321.706055 
	C705.346741,321.226471 705.598633,321.049530 706.275269,320.940979 
	C707.643677,319.751343 709.337952,318.691467 709.542725,317.396149 
	C710.677734,310.215698 706.514648,305.494934 698.997192,305.002014 
	C699.000000,305.000000 698.995667,305.005676 698.996826,304.617126 
	C698.003296,298.329651 694.833496,295.415466 688.988586,295.007935 
	C689.000000,295.000000 688.984070,295.023010 688.989502,294.638611 
	C688.255981,289.901581 683.420898,284.478607 679.383484,284.186676 
	C677.640198,284.060669 675.797546,285.309235 673.712219,286.077118 
	C672.625732,286.491180 671.827087,286.761475 671.017517,287.019165 
	C671.006653,287.006531 670.985901,286.982544 670.984436,286.601135 
	C670.633850,282.951202 668.645203,281.627991 665.624512,282.257263 
	C665.177979,282.350281 665.199768,284.691559 665.007751,286.357727 
	C666.113770,289.539215 665.323853,291.615021 663.016785,293.628021 
	C661.369080,295.065735 660.349976,297.223877 659.027100,299.029297 
	C659.003845,298.998077 659.060425,299.052765 658.652466,299.034241 
	C657.158875,299.013306 656.073364,299.010925 654.606201,299.008057 
	C653.243347,299.348358 652.262024,299.689148 651.280762,300.029907 
	C652.200378,301.367950 653.119934,302.705994 653.896118,304.338654 
	C651.862427,306.433411 649.972168,308.233612 647.706970,310.059265 
	C645.890442,312.723816 644.448853,315.362915 642.722290,317.737122 
	C642.416138,315.413544 642.623779,313.314117 642.268127,311.314941 
	C642.112366,310.439453 640.805786,309.768646 640.021790,309.004883 
	C641.526123,305.613007 642.253235,301.579193 647.256592,300.322662 
	C649.445862,298.601990 651.226562,297.298553 653.415405,295.993652 
	C658.767761,296.060547 656.414429,292.256439 657.142761,289.709534 
	C657.524536,287.938660 657.761047,286.468750 657.997559,284.998840 
	C665.854675,277.073425 673.723206,269.159180 681.547913,261.201782 
	C682.189087,260.549744 682.531677,259.604126 683.047729,258.436768 
M818.928284,171.433151 
	C818.623840,171.110809 818.319458,170.788452 818.015015,170.466095 
	C817.833923,170.675659 817.652893,170.885223 817.471863,171.094788 
	C817.982056,171.396103 818.492249,171.697433 819.017395,172.731995 
	C820.161194,174.241104 821.304993,175.750214 822.448792,177.259308 
	C822.960632,176.771133 823.472473,176.282944 823.984314,175.794754 
	C822.322205,174.530258 820.660095,173.265762 818.928284,171.433151 
M865.263000,220.046127 
	C865.861389,220.577744 866.377747,221.349747 867.076233,221.588028 
	C868.311646,222.009552 869.666138,222.275299 870.951477,222.211975 
	C871.247253,222.197433 871.905884,220.018051 871.639648,219.811401 
	C870.594421,219.000229 869.284607,218.283966 867.997131,218.116730 
	C867.131470,218.004288 866.138184,218.873566 865.263000,220.046127 
M655.626282,338.480133 
	C653.510742,344.900970 658.803772,342.582428 661.065063,343.840210 
	C661.412903,343.420074 661.760742,342.999908 662.108582,342.579773 
	C660.170227,341.119171 658.231812,339.658600 655.626282,338.480133 
M765.793579,187.818054 
	C764.558960,187.091095 763.324341,186.364136 762.089722,185.637161 
	C761.994507,186.489288 761.899292,187.341415 761.804077,188.193542 
	C763.159058,188.303741 764.513977,188.413940 765.793579,187.818054 
M736.935303,213.342590 
	C736.460876,212.720932 735.986511,212.099258 735.512085,211.477600 
	C735.125427,212.092438 734.738770,212.707275 734.352112,213.322113 
	C735.167114,213.548569 735.982178,213.775040 736.935303,213.342590 
M668.914734,349.631805 
	C668.339722,349.881531 667.764709,350.131287 667.189636,350.380981 
	C667.669373,350.859344 668.149109,351.337708 668.628845,351.816101 
	C668.879211,351.242065 669.129578,350.668060 668.914734,349.631805 
M758.524902,192.313461 
	C757.978577,191.975281 757.432190,191.637115 756.885864,191.298935 
	C756.751099,191.572708 756.616333,191.846497 756.481567,192.120270 
	C757.016602,192.324951 757.551697,192.529633 758.524902,192.313461 
M828.736389,452.833862 
	C828.329651,452.780029 827.922974,452.726196 827.516235,452.672394 
	C827.711365,453.194489 827.906494,453.716553 828.101562,454.238586 
	C828.363953,453.947876 828.626282,453.657166 828.736389,452.833862 
M886.296814,396.494354 
	C885.869324,396.121063 885.449951,395.736572 884.992737,395.404144 
	C884.967102,395.385498 884.629700,395.795776 884.437439,396.006409 
	C884.917664,396.285156 885.397827,396.563904 886.296814,396.494354 
M924.364197,356.446625 
	C924.059143,356.832001 923.754089,357.217346 923.449036,357.602722 
	C923.822510,357.802124 924.196045,358.001526 924.569458,358.200928 
	C924.628784,357.747314 924.688049,357.293701 924.364197,356.446625 
M852.420471,428.332764 
	C852.950500,428.467194 853.479065,428.610474 854.016296,428.703247 
	C854.037354,428.706879 854.141663,428.228180 854.207214,427.974243 
	C853.598877,427.908600 852.990479,427.842957 852.420471,428.332764 
M860.295166,420.434174 
	C860.010620,420.705688 859.726013,420.977234 859.441467,421.248779 
	C859.554077,421.366577 859.758362,421.593018 859.766052,421.586548 
	C860.066162,421.333130 860.348389,421.058472 860.295166,420.434174 
M869.295349,411.433868 
	C869.010803,411.705505 868.726196,411.977112 868.441650,412.248749 
	C868.554260,412.366516 868.758606,412.592926 868.766296,412.586456 
	C869.066406,412.332947 869.348694,412.058228 869.295349,411.433868 
M844.565857,437.295410 
	C844.294250,437.010803 844.022644,436.726227 843.751038,436.441650 
	C843.633240,436.554260 843.406860,436.758545 843.413330,436.766174 
	C843.666809,437.066345 843.941467,437.348663 844.565857,437.295410 
M875.433899,404.704712 
	C875.705444,404.989319 875.977051,405.273956 876.248596,405.558563 
	C876.366333,405.445953 876.592712,405.241638 876.586304,405.233978 
	C876.332764,404.933838 876.058167,404.651520 875.433899,404.704712 
M837.606445,443.798553 
	C837.213562,443.794342 836.820679,443.790131 836.427795,443.785950 
	C836.426208,443.949005 836.413757,444.253815 836.424744,444.254669 
	C836.815735,444.284851 837.208862,444.286560 837.606445,443.798553 
M821.566101,460.295349 
	C821.294556,460.010681 821.022949,459.726044 820.751404,459.441376 
	C820.633545,459.553955 820.407104,459.758270 820.413574,459.765991 
	C820.666992,460.066254 820.941711,460.348541 821.566101,460.295349 
M933.201355,348.606415 
	C933.205566,348.213440 933.209839,347.820465 933.214050,347.427490 
	C933.050964,347.425964 932.746155,347.413483 932.745300,347.424500 
	C932.715088,347.815491 932.713440,348.208679 933.201355,348.606415 
M768.295105,191.434235 
	C768.010681,191.705673 767.726257,191.977112 767.441895,192.248581 
	C767.554443,192.366287 767.758728,192.592560 767.766418,192.586075 
	C768.066406,192.332764 768.348389,192.058212 768.295105,191.434235 
M939.433838,340.704803 
	C939.705444,340.989380 939.977112,341.273926 940.248718,341.558441 
	C940.366455,341.445831 940.592834,341.241455 940.586365,341.233765 
	C940.332886,340.933685 940.058105,340.651520 939.433838,340.704803 
M713.433960,391.704376 
	C713.705566,391.989075 713.977173,392.273804 714.248779,392.558502 
	C714.366577,392.445892 714.593079,392.241516 714.586670,392.233917 
	C714.333069,391.933655 714.058350,391.651245 713.433960,391.704376 
M916.434204,363.704376 
	C916.705750,363.989014 916.977295,364.273651 917.248840,364.558319 
	C917.366638,364.445679 917.593018,364.241333 917.586548,364.233673 
	C917.333069,363.933472 917.058472,363.651184 916.434204,363.704376 
M908.606384,372.798767 
	C908.213501,372.794556 907.820557,372.790375 907.427673,372.786163 
	C907.426086,372.949219 907.413635,373.253967 907.424561,373.254822 
	C907.815552,373.284973 908.208740,373.286682 908.606384,372.798767 
M900.798828,379.393280 
	C900.794617,379.786255 900.790344,380.179199 900.786133,380.572205 
	C900.949219,380.573730 901.253906,380.586182 901.254761,380.575165 
	C901.284912,380.184143 901.286743,379.790955 900.798828,379.393280 
M891.393372,389.201416 
	C891.786316,389.205597 892.179199,389.209778 892.572144,389.213959 
	C892.573730,389.050903 892.586182,388.746124 892.575256,388.745270 
	C892.184265,388.715149 891.791016,388.713440 891.393372,389.201416 
z"/>
<path fill="#0179B3" opacity="1.000000" stroke="none" 
	d="
M838.029297,303.905334 
	C836.903870,302.685150 835.778503,301.464996 834.310059,299.756531 
	C831.654602,296.825348 829.342102,294.382477 827.029602,291.939575 
	C823.942322,283.787323 825.368958,276.811157 832.998047,271.008606 
	C834.089783,269.825439 834.591248,268.930878 835.092773,268.036346 
	C835.662903,267.562775 836.232971,267.089172 837.264526,266.300964 
	C839.185059,264.339844 840.644226,262.693298 842.103394,261.046753 
	C842.410767,260.955719 842.658386,260.780396 843.271179,260.257935 
	C844.815857,259.005920 845.935730,258.016663 847.055664,257.027405 
	C847.544128,256.449951 848.032715,255.872467 849.064636,255.002136 
	C854.063354,250.139740 858.518677,245.570190 862.973999,241.000641 
	C863.477539,240.420364 863.981079,239.840088 865.045105,238.987442 
	C866.770325,237.157562 867.935120,235.600037 869.099915,234.042511 
	C869.409546,233.949966 869.657715,233.771805 870.234863,233.151428 
	C871.764099,231.542816 872.902954,230.290771 874.041809,229.038727 
	C874.041809,229.038727 874.033447,229.024994 874.042358,229.041138 
	C875.601929,227.906204 877.495728,227.019806 878.630737,225.548187 
	C880.896667,222.610260 882.602844,222.998840 885.014771,225.425201 
	C905.549316,246.081726 926.186157,266.636475 946.746765,287.267181 
	C949.274658,289.803711 951.534729,292.607086 953.942017,295.632904 
	C952.395630,297.769348 950.826050,299.559753 948.840088,301.791138 
	C947.611450,303.154083 946.799133,304.075989 945.986816,304.997925 
	C945.874878,305.319885 945.689209,305.591370 944.886841,305.972229 
	C944.549744,307.115417 944.755615,308.098907 944.961487,309.082367 
	C944.961487,309.082367 944.984619,309.544952 945.059570,310.181519 
	C945.420654,314.209045 945.706848,317.600006 945.992920,320.990967 
	C945.670349,321.452698 945.347717,321.914429 944.708740,322.823975 
	C939.937988,327.850769 935.483704,332.429688 931.029358,337.008606 
	C930.356323,337.750214 929.683289,338.491791 928.637817,339.620239 
	C923.849060,344.340332 919.432617,348.673553 915.016174,353.006775 
	C915.016174,353.006775 914.998535,353.000000 914.684082,353.049438 
	C913.919556,353.735535 913.469482,354.372223 913.019470,355.008911 
	C913.019470,355.008911 913.000000,354.998749 912.714233,355.139008 
	C911.287231,356.519501 910.146057,357.759766 909.004883,359.000000 
	C909.004883,359.000000 909.000000,359.000000 908.697144,359.145081 
	C905.931274,361.683258 903.531921,364.146515 900.991272,366.454163 
	C896.448547,370.580231 890.004456,370.838593 885.754150,367.271271 
	C884.279480,366.033600 882.627747,365.006836 881.056885,363.883728 
	C881.056885,363.883728 881.037354,363.436157 880.958618,362.881714 
	C877.606384,359.512390 874.332886,356.697540 871.059448,353.882690 
	C870.970032,353.574463 870.794556,353.327454 870.256836,352.707855 
	C868.340820,350.807861 866.700806,349.341614 865.060852,347.875336 
	C864.864319,347.349365 864.667847,346.823364 864.087097,345.847839 
	C858.824280,340.886963 853.945740,336.375671 849.067261,331.864349 
	C848.316772,331.230988 847.566284,330.597656 846.427856,329.598846 
	C844.039001,327.132843 842.038086,325.032288 840.037109,322.931702 
	C840.037109,322.931732 839.993652,322.459961 839.962769,321.816772 
	C839.626160,318.119659 839.320374,315.065704 839.014587,312.011749 
	C839.014587,312.011749 839.000000,312.000000 839.340942,311.940308 
	C840.801086,310.920410 841.920410,309.960205 843.382263,309.022400 
	C845.253601,310.290894 846.900269,311.418304 848.292419,312.801849 
	C859.284180,323.726471 870.185791,334.741974 881.201233,345.642487 
	C887.748535,352.121521 896.279602,353.017578 901.668884,347.812317 
	C913.936157,335.963959 926.148865,324.058533 938.313477,312.104828 
	C940.530334,309.926331 942.245605,307.621979 939.087524,304.504547 
	C925.845886,291.433472 912.768616,278.196106 899.561279,265.090027 
	C896.369507,261.922791 889.702820,261.977234 886.437134,265.075500 
	C879.485352,271.670990 872.588440,278.324615 865.705688,284.992340 
	C863.466797,287.161316 861.398438,289.506653 859.153931,291.669403 
	C853.820312,296.808746 848.428040,301.887146 842.773987,306.879883 
	C841.659790,306.189880 840.831116,305.610107 840.002441,305.030304 
	C840.002441,305.030304 839.541687,304.987274 839.190552,304.753174 
	C838.569336,304.314453 838.299316,304.109894 838.029297,303.905334 
z"/>
<path fill="#01ACEA" opacity="1.000000" stroke="none" 
	d="
M704.000000,387.998352 
	C705.981567,389.043640 707.963074,390.088928 709.944641,391.134216 
	C709.848816,391.631042 709.752991,392.127838 709.657166,392.624664 
	C708.041199,392.749756 706.425171,392.874817 704.402954,393.000580 
	C700.767761,389.839264 697.557007,386.658508 694.304932,383.520630 
	C691.100830,380.429047 687.854797,377.380890 684.314819,374.156494 
	C684.788391,373.026398 685.574280,372.053406 686.930725,371.039490 
	C687.501221,370.998535 688.000000,370.999390 688.000000,370.999390 
	C688.463440,372.228180 688.926819,373.456940 690.066895,374.846405 
	C695.137817,376.319397 698.449280,378.559265 699.139893,383.629181 
	C699.262878,384.531769 701.005371,385.213715 702.000000,385.997559 
	C702.100891,386.321655 702.288391,386.583710 702.890442,387.110504 
	C703.417297,387.710083 703.677917,387.897064 704.000000,387.998352 
z"/>
<path fill="#01ACEA" opacity="1.000000" stroke="none" 
	d="
M653.007324,295.995117 
	C651.226562,297.298553 649.445862,298.601990 647.328857,299.954590 
	C647.380371,298.221283 647.228638,295.994934 648.259766,294.742065 
	C651.032593,291.373077 654.310669,288.419861 657.692871,285.150208 
	C657.761047,286.468750 657.524536,287.938660 656.830383,289.862976 
	C655.250977,292.209961 654.129150,294.102539 653.007324,295.995117 
z"/>
<path fill="#01ACEA" opacity="1.000000" stroke="none" 
	d="
M749.693420,194.142822 
	C750.098206,194.319504 750.287109,194.583023 750.782104,195.226349 
	C751.002441,196.109512 751.002441,196.551407 751.002441,196.993286 
	C751.001587,197.744965 751.000793,198.496643 750.604370,199.624176 
	C748.805786,200.666672 747.402893,201.333328 746.000000,202.000000 
	C746.000000,202.000000 746.000000,202.001221 746.000000,202.001205 
	C745.068909,203.388245 744.137817,204.775299 743.003601,206.464951 
	C742.289001,205.941010 741.326294,205.235199 740.178101,204.260437 
	C743.125732,200.758041 746.258728,197.524582 749.693420,194.142822 
z"/>
<path fill="#01ACEA" opacity="1.000000" stroke="none" 
	d="
M721.001343,406.376709 
	C721.746948,406.000793 722.498779,406.000366 723.626526,405.999939 
	C726.311523,408.433350 728.620605,410.866730 730.643311,413.691742 
	C729.904114,414.726227 729.451294,415.369110 728.998413,416.011993 
	C723.959900,414.974854 723.448364,410.031036 721.001343,406.376709 
z"/>
<path fill="#01ACEA" opacity="1.000000" stroke="none" 
	d="
M719.002441,402.996216 
	C718.450195,403.825684 717.897888,404.655090 717.169312,405.747131 
	C714.993347,402.931000 712.993652,399.852264 710.992126,396.390320 
	C711.744995,396.240997 712.672974,396.880432 713.226929,396.643921 
	C717.325317,394.894043 717.810669,397.780792 718.729858,401.101074 
	C719.002441,402.110077 719.002441,402.553162 719.002441,402.996216 
z"/>
<path fill="#01ACE8" opacity="1.000000" stroke="none" 
	d="
M640.013794,309.424500 
	C640.805786,309.768646 642.112366,310.439453 642.268127,311.314941 
	C642.623779,313.314117 642.416138,315.413544 642.764099,318.116241 
	C643.393921,320.506836 643.696960,322.253418 644.000000,324.000000 
	C643.195984,324.250000 642.392029,324.500000 641.292786,324.875458 
	C640.666931,319.948639 640.336365,314.896362 640.013794,309.424500 
z"/>
<path fill="#01ACEA" opacity="1.000000" stroke="none" 
	d="
M683.003845,365.993896 
	C683.002563,366.746002 683.001282,367.498108 683.000000,368.626343 
	C680.128296,367.182556 677.256531,365.362640 674.192383,363.271973 
	C675.405273,362.333466 676.810547,361.665710 678.947510,361.045532 
	C680.787476,362.726685 681.895691,364.360291 683.003845,365.993896 
z"/>
<path fill="#01ACEA" opacity="1.000000" stroke="none" 
	d="
M777.340759,459.993042 
	C777.562073,462.064819 777.562073,463.828522 777.562073,465.592224 
	C777.136902,465.637512 776.711792,465.682831 776.286621,465.728119 
	C774.775024,463.902954 773.147156,462.158295 771.803101,460.217102 
	C771.174927,459.309875 771.095703,458.022552 770.767700,456.907501 
	C772.071960,457.005280 773.494263,456.815674 774.644470,457.288361 
	C775.631104,457.693878 776.306458,458.856934 777.340759,459.993042 
z"/>
<path fill="#01ACE8" opacity="1.000000" stroke="none" 
	d="
M889.339355,397.973389 
	C887.619934,393.364288 887.832275,393.160889 893.718811,393.882843 
	C892.559753,395.314850 891.116821,396.627655 889.339355,397.973389 
z"/>
<path fill="#01ACE8" opacity="1.000000" stroke="none" 
	d="
M826.329468,460.966858 
	C825.674316,459.856628 825.338867,458.702271 825.003357,457.547913 
	C826.301880,457.475098 827.600342,457.402283 828.951904,457.669617 
	C828.219666,458.980774 827.434387,459.951752 826.329468,460.966858 
z"/>
<path fill="#01ACE8" opacity="1.000000" stroke="none" 
	d="
M922.328308,364.961884 
	C921.983154,363.587830 921.958984,362.168427 921.934814,360.748993 
	C923.182617,360.959900 924.430481,361.170837 925.840332,361.692505 
	C924.884705,362.974365 923.767029,363.945435 922.328308,364.961884 
z"/>
<path fill="#01ACE8" opacity="1.000000" stroke="none" 
	d="
M907.286865,380.856689 
	C906.105896,380.384460 905.214111,379.772369 902.862732,378.158356 
	C905.674500,377.817963 907.114258,377.643646 908.781555,377.738708 
	C908.531372,378.910980 908.053711,379.813904 907.286865,380.856689 
z"/>
<path fill="#01ACE8" opacity="1.000000" stroke="none" 
	d="
M858.001587,429.003052 
	C857.410461,428.291199 856.817871,427.576294 856.225281,426.861359 
	C857.664917,426.395721 859.104492,425.930084 860.776917,425.737427 
	C860.519897,426.595642 860.030090,427.180908 859.053101,427.991211 
	C858.289795,428.414490 858.102722,428.676392 858.004700,429.001892 
	C858.004700,429.001892 858.000000,429.000000 858.001587,429.003052 
z"/>
<path fill="#01ACE8" opacity="1.000000" stroke="none" 
	d="
M875.286499,412.859924 
	C874.399963,412.074524 873.802368,411.147827 873.204712,410.221191 
	C874.314758,409.968353 875.424744,409.715515 876.772217,409.734985 
	C876.531616,410.911102 876.053528,411.814880 875.286499,412.859924 
z"/>
<path fill="#01ACE8" opacity="1.000000" stroke="none" 
	d="
M842.296509,445.856934 
	C840.465027,443.105469 840.891968,441.351898 844.809814,441.760071 
	C844.204163,443.243134 843.398621,444.478485 842.296509,445.856934 
z"/>
<path fill="#01ACE8" opacity="1.000000" stroke="none" 
	d="
M938.305908,349.843750 
	C938.450867,348.697174 938.901794,347.393158 939.678711,346.049408 
	C939.540466,347.235229 939.076172,348.460785 938.305908,349.843750 
z"/>
<path fill="#01ABE6" opacity="1.000000" stroke="none" 
	d="
M729.194702,416.245911 
	C729.451294,415.369110 729.904114,414.726227 730.678467,414.041077 
	C730.463623,414.825806 729.927307,415.652832 729.194702,416.245911 
z"/>
<path fill="#01ABE6" opacity="1.000000" stroke="none" 
	d="
M841.559692,189.638062 
	C841.693176,190.292801 841.633423,190.749557 841.573608,191.206314 
	C841.197021,191.005920 840.820435,190.805511 840.443848,190.605118 
	C840.751404,190.216782 841.058899,189.828430 841.559692,189.638062 
z"/>
<path fill="#01ABE6" opacity="1.000000" stroke="none" 
	d="
M842.468262,186.607330 
	C842.351746,187.059265 842.067261,187.336288 841.764709,187.591995 
	C841.756958,187.598541 841.550903,187.370377 841.437317,187.251648 
	C841.724182,186.977646 842.011108,186.703644 842.468262,186.607330 
z"/>
<path fill="#01ABE6" opacity="1.000000" stroke="none" 
	d="
M858.223694,428.893982 
	C858.102722,428.676392 858.289795,428.414490 858.787170,428.110962 
	C858.903870,428.326721 858.715271,428.586823 858.223694,428.893982 
z"/>
<path fill="#01ACE8" opacity="1.000000" stroke="none" 
	d="
M940.257385,346.004883 
	C940.281189,345.892212 940.553650,345.780548 940.914734,345.836884 
	C941.003357,346.004883 940.506042,346.005920 940.257385,346.004883 
z"/>
<path fill="#FCFCFC" opacity="1.000000" stroke="none" 
	d="
M429.206787,293.678528 
	C439.850250,302.260406 440.647705,313.535736 438.345490,325.254395 
	C436.395660,335.179352 430.083679,341.927917 420.098450,344.360687 
	C398.448517,349.635406 382.512177,334.539734 385.493713,312.253052 
	C388.400085,290.528381 410.615784,281.220947 429.206787,293.678528 
z"/>
<path fill="#017AB4" opacity="1.000000" stroke="none" 
	d="
M705.913452,320.962067 
	C705.598633,321.049530 705.346741,321.226471 704.723145,321.770752 
	C699.501465,327.021667 694.714294,331.994629 689.927185,336.967590 
	C689.608337,337.053772 689.354187,337.232147 688.764648,337.869904 
	C683.473389,340.984802 680.557983,346.973755 674.002747,346.991760 
	C670.431946,343.859741 666.861145,340.727753 663.002808,336.994019 
	C660.821960,334.581879 658.928711,332.771454 657.035461,330.961029 
	C657.035461,330.961029 657.020081,330.998962 656.986450,330.636719 
	C654.252625,327.670349 651.713440,324.867462 648.808716,322.516113 
	C645.677612,319.981506 645.413025,317.126770 646.788635,313.710205 
	C647.273376,312.506348 647.653809,311.260468 648.081909,310.033813 
	C649.972168,308.233612 651.862427,306.433411 654.108765,304.227783 
	C654.738708,303.631287 654.923706,303.375793 655.361145,303.010193 
	C656.821838,301.660583 657.941162,300.356689 659.060425,299.052765 
	C659.060425,299.052765 659.003845,298.998077 659.368469,298.989319 
	C663.498169,294.997650 667.263306,291.014709 671.028381,287.031769 
	C671.827087,286.761475 672.625732,286.491180 674.114136,286.101013 
	C677.459167,287.082245 680.321350,287.857880 682.711121,289.376923 
	C685.052429,290.865143 686.912720,293.110138 688.984070,295.023010 
	C688.984070,295.023010 689.000000,295.000000 689.132568,295.307800 
	C692.508606,298.745667 695.752136,301.875671 698.995667,305.005676 
	C698.995667,305.005676 699.000000,305.000000 699.137085,305.305115 
	C700.525085,306.924744 701.669739,308.365021 703.047546,309.529449 
	C706.782715,312.686157 707.990906,316.390228 705.913452,320.962067 
z"/>
<path fill="#0EABE1" opacity="1.000000" stroke="none" 
	d="
M647.706970,310.059265 
	C647.653809,311.260468 647.273376,312.506348 646.788635,313.710205 
	C645.413025,317.126770 645.677612,319.981506 648.808716,322.516113 
	C651.713440,324.867462 654.252625,327.670349 657.000244,330.617371 
	C655.549316,332.203491 654.050903,333.446686 652.339172,334.866821 
	C647.938416,333.000244 650.342834,325.399872 644.177246,324.325989 
	C643.696960,322.253418 643.393921,320.506836 643.049072,318.381134 
	C644.448853,315.362915 645.890442,312.723816 647.706970,310.059265 
z"/>
<path fill="#0EABE1" opacity="1.000000" stroke="none" 
	d="
M701.999878,385.599518 
	C701.005371,385.213715 699.262878,384.531769 699.139893,383.629181 
	C698.449280,378.559265 695.137817,376.319397 690.374207,375.002319 
	C690.401001,370.410919 693.080383,370.448334 696.208130,372.153381 
	C701.325623,374.943085 702.893005,378.690735 701.999878,385.599518 
z"/>
<path fill="#0EABE1" opacity="1.000000" stroke="none" 
	d="
M881.041504,364.267242 
	C882.627747,365.006836 884.279480,366.033600 885.754150,367.271271 
	C890.004456,370.838593 896.448547,370.580231 900.991272,366.454163 
	C903.531921,364.146515 905.931274,361.683258 908.697144,359.147522 
	C906.882507,368.931213 892.962646,375.120239 884.614624,369.648193 
	C883.014221,368.599121 882.202026,366.347565 881.041504,364.267242 
z"/>
<path fill="#0EABE1" opacity="1.000000" stroke="none" 
	d="
M683.395508,365.983215 
	C681.895691,364.360291 680.787476,362.726685 679.343872,361.044098 
	C678.059509,360.330170 677.191345,359.294739 676.146973,359.066833 
	C672.371887,358.243011 672.349548,358.345520 671.799683,354.193115 
	C674.986145,355.098572 678.512573,355.749176 681.706604,357.154999 
	C683.328918,357.869049 684.926575,359.765594 685.453064,361.463226 
	C685.829529,362.677338 684.407043,364.449402 683.395508,365.983215 
z"/>
<path fill="#0EABE1" opacity="1.000000" stroke="none" 
	d="
M706.275269,320.940979 
	C707.990906,316.390228 706.782715,312.686157 703.047546,309.529449 
	C701.669739,308.365021 700.525085,306.924744 699.134277,305.307129 
	C706.514648,305.494934 710.677734,310.215698 709.542725,317.396149 
	C709.337952,318.691467 707.643677,319.751343 706.275269,320.940979 
z"/>
<path fill="#0EABE1" opacity="1.000000" stroke="none" 
	d="
M690.308716,336.974060 
	C694.714294,331.994629 699.501465,327.021667 704.625366,321.983978 
	C706.568359,326.779449 701.436768,327.042877 699.549561,329.407288 
	C697.169617,332.389160 693.693420,334.496124 690.308716,336.974060 
z"/>
<path fill="#0EABE1" opacity="1.000000" stroke="none" 
	d="
M674.257080,347.273499 
	C680.557983,346.973755 683.473389,340.984802 688.667969,338.086029 
	C688.489380,345.860474 683.815002,348.970367 674.257080,347.273499 
z"/>
<path fill="#0EABE1" opacity="1.000000" stroke="none" 
	d="
M849.048340,332.247925 
	C853.945740,336.375671 858.824280,340.886963 863.839783,345.699982 
	C860.159424,346.241180 857.540405,344.616791 855.523987,341.318359 
	C853.646301,338.247131 851.216248,335.513611 849.048340,332.247925 
z"/>
<path fill="#0EABE1" opacity="1.000000" stroke="none" 
	d="
M688.989502,294.638611 
	C686.912720,293.110138 685.052429,290.865143 682.711121,289.376923 
	C680.321350,287.857880 677.459167,287.082245 674.401855,285.957275 
	C675.797546,285.309235 677.640198,284.060669 679.383484,284.186676 
	C683.420898,284.478607 688.255981,289.901581 688.989502,294.638611 
z"/>
<path fill="#02A9E5" opacity="1.000000" stroke="none" 
	d="
M671.017517,287.019165 
	C667.263306,291.014709 663.498169,294.997650 659.391724,299.020569 
	C660.349976,297.223877 661.369080,295.065735 663.016785,293.628021 
	C665.323853,291.615021 666.113770,289.539215 665.391357,286.364563 
	C667.510010,286.331726 669.247986,286.657135 670.985901,286.982544 
	C670.985901,286.982544 671.006653,287.006531 671.017517,287.019165 
z"/>
<path fill="#0EABE1" opacity="1.000000" stroke="none" 
	d="
M931.392578,337.001709 
	C935.483704,332.429688 939.937988,327.850769 944.688965,323.120331 
	C943.005127,329.935699 937.657837,333.726898 931.392578,337.001709 
z"/>
<path fill="#0EABE1" opacity="1.000000" stroke="none" 
	d="
M915.380615,353.000488 
	C919.432617,348.673553 923.849060,344.340332 928.601135,339.932434 
	C926.236206,345.940399 921.644348,350.123840 915.380615,353.000488 
z"/>
<path fill="#0EABE1" opacity="1.000000" stroke="none" 
	d="
M862.611328,241.004425 
	C858.518677,245.570190 854.063354,250.139740 849.303467,254.839691 
	C851.301636,248.310089 856.411377,244.313919 862.611328,241.004425 
z"/>
<path fill="#0EABE1" opacity="1.000000" stroke="none" 
	d="
M946.359375,320.931030 
	C945.706848,317.600006 945.420654,314.209045 945.091492,310.410889 
	C946.500610,310.094055 947.952698,310.184418 950.832214,310.363647 
	C949.299927,314.284546 948.012878,317.577850 946.359375,320.931030 
z"/>
<path fill="#0EABE1" opacity="1.000000" stroke="none" 
	d="
M698.996826,304.617126 
	C695.752136,301.875671 692.508606,298.745667 689.121155,295.315735 
	C694.833496,295.415466 698.003296,298.329651 698.996826,304.617126 
z"/>
<path fill="#0EABE1" opacity="1.000000" stroke="none" 
	d="
M871.043701,354.264618 
	C874.332886,356.697540 877.606384,359.512390 880.925049,362.660248 
	C876.106079,362.057343 871.966309,360.258698 871.043701,354.264618 
z"/>
<path fill="#0EABE1" opacity="1.000000" stroke="none" 
	d="
M838.628723,312.058655 
	C839.320374,315.065704 839.626160,318.119659 839.921265,321.583588 
	C835.113342,320.103790 834.391357,315.823090 838.628723,312.058655 
z"/>
<path fill="#0EABE1" opacity="1.000000" stroke="none" 
	d="
M865.232544,219.674866 
	C866.138184,218.873566 867.131470,218.004288 867.997131,218.116730 
	C869.284607,218.283966 870.594421,219.000229 871.639648,219.811401 
	C871.905884,220.018051 871.247253,222.197433 870.951477,222.211975 
	C869.666138,222.275299 868.311646,222.009552 867.076233,221.588028 
	C866.377747,221.349747 865.861389,220.577744 865.232544,219.674866 
z"/>
<path fill="#0EABE1" opacity="1.000000" stroke="none" 
	d="
M670.984436,286.601135 
	C669.247986,286.657135 667.510010,286.331726 665.388489,285.999481 
	C665.199768,284.691559 665.177979,282.350281 665.624512,282.257263 
	C668.645203,281.627991 670.633850,282.951202 670.984436,286.601135 
z"/>
<path fill="#0EABE1" opacity="1.000000" stroke="none" 
	d="
M655.959839,338.339050 
	C658.231812,339.658600 660.170227,341.119171 662.108582,342.579773 
	C661.760742,342.999908 661.412903,343.420074 661.065063,343.840210 
	C658.803772,342.582428 653.510742,344.900970 655.959839,338.339050 
z"/>
<path fill="#0EABE1" opacity="1.000000" stroke="none" 
	d="
M840.025024,323.346252 
	C842.038086,325.032288 844.039001,327.132843 846.125244,329.562683 
	C841.515625,330.505768 839.645935,328.263763 840.025024,323.346252 
z"/>
<path fill="#0EABE1" opacity="1.000000" stroke="none" 
	d="
M827.024109,292.317780 
	C829.342102,294.382477 831.654602,296.825348 834.029785,299.616455 
	C829.892029,299.334839 827.537048,296.909088 827.024109,292.317780 
z"/>
<path fill="#0EABE1" opacity="1.000000" stroke="none" 
	d="
M653.415405,295.993652 
	C654.129150,294.102539 655.250977,292.209961 656.685181,290.164001 
	C656.414429,292.256439 658.767761,296.060547 653.415405,295.993652 
z"/>
<path fill="#0EABE1" opacity="1.000000" stroke="none" 
	d="
M765.831299,188.171112 
	C764.513977,188.413940 763.159058,188.303741 761.804077,188.193542 
	C761.899292,187.341415 761.994507,186.489288 762.089722,185.637161 
	C763.324341,186.364136 764.558960,187.091095 765.831299,188.171112 
z"/>
<path fill="#01ACEA" opacity="1.000000" stroke="none" 
	d="
M751.000000,200.000000 
	C751.961060,201.167328 752.922119,202.334671 753.883179,203.502029 
	C752.840149,204.330811 751.797119,205.159576 750.377563,205.618927 
	C750.001465,204.499603 750.001953,203.749695 750.264404,202.793945 
	C750.684204,201.725403 750.842102,200.862701 751.000000,200.000000 
z"/>
<path fill="#0EABE1" opacity="1.000000" stroke="none" 
	d="
M839.994263,305.422668 
	C840.831116,305.610107 841.659790,306.189880 842.760376,307.214905 
	C843.034729,308.106750 843.037170,308.553375 843.039673,309.000000 
	C841.920410,309.960205 840.801086,310.920410 839.347229,311.947144 
	C839.337158,309.947418 839.661682,307.881226 839.994263,305.422668 
z"/>
<path fill="#0EABE1" opacity="1.000000" stroke="none" 
	d="
M655.019714,303.055878 
	C654.923706,303.375793 654.738708,303.631287 654.252136,303.933197 
	C653.119934,302.705994 652.200378,301.367950 651.280762,300.029907 
	C652.262024,299.689148 653.243347,299.348358 654.609009,299.411713 
	C655.002136,300.895844 655.010925,301.975861 655.019714,303.055878 
z"/>
<path fill="#0EABE1" opacity="1.000000" stroke="none" 
	d="
M865.044373,348.257568 
	C866.700806,349.341614 868.340820,350.807861 870.047729,352.610260 
	C868.419128,351.510864 866.723511,350.075317 865.044373,348.257568 
z"/>
<path fill="#0EABE1" opacity="1.000000" stroke="none" 
	d="
M657.027344,331.334839 
	C658.928711,332.771454 660.821960,334.581879 662.838501,336.694519 
	C659.438904,336.966858 657.607971,335.035675 657.027344,331.334839 
z"/>
<path fill="#0EABE1" opacity="1.000000" stroke="none" 
	d="
M818.997986,172.001266 
	C820.660095,173.265762 822.322205,174.530258 823.984314,175.794754 
	C823.472473,176.282944 822.960632,176.771133 822.448792,177.259308 
	C821.304993,175.750214 820.161194,174.241104 819.008667,172.365997 
	C819.000000,172.000000 818.997986,172.001266 818.997986,172.001266 
z"/>
<path fill="#0EABE1" opacity="1.000000" stroke="none" 
	d="
M750.002441,202.999786 
	C750.001953,203.749695 750.001465,204.499603 750.000488,205.624451 
	C748.670593,204.917740 747.341187,203.836090 746.005859,202.377838 
	C746.000000,202.001221 746.000000,202.000000 746.350586,202.002884 
	C747.801575,202.337112 748.902039,202.668442 750.002441,202.999786 
z"/>
<path fill="#02A9E5" opacity="1.000000" stroke="none" 
	d="
M655.361145,303.010193 
	C655.010925,301.975861 655.002136,300.895844 654.990601,299.412170 
	C656.073364,299.010925 657.158875,299.013306 658.652466,299.034241 
	C657.941162,300.356689 656.821838,301.660583 655.361145,303.010193 
z"/>
<path fill="#0EABE1" opacity="1.000000" stroke="none" 
	d="
M841.747375,261.061096 
	C840.644226,262.693298 839.185059,264.339844 837.386780,266.046448 
	C838.495544,264.429474 839.943420,262.752441 841.747375,261.061096 
z"/>
<path fill="#0EABE1" opacity="1.000000" stroke="none" 
	d="
M868.735352,234.060837 
	C867.935120,235.600037 866.770325,237.157562 865.303101,238.850342 
	C866.124023,237.350128 867.247437,235.714645 868.735352,234.060837 
z"/>
<path fill="#0EABE1" opacity="1.000000" stroke="none" 
	d="
M873.659424,229.030838 
	C872.902954,230.290771 871.764099,231.542816 870.332825,232.940521 
	C871.119263,231.731750 872.198181,230.377350 873.659424,229.030838 
z"/>
<path fill="#0EABE1" opacity="1.000000" stroke="none" 
	d="
M736.866211,213.672043 
	C735.982178,213.775040 735.167114,213.548569 734.352112,213.322113 
	C734.738770,212.707275 735.125427,212.092438 735.512085,211.477600 
	C735.986511,212.099258 736.460876,212.720932 736.866211,213.672043 
z"/>
<path fill="#0EABE1" opacity="1.000000" stroke="none" 
	d="
M909.380615,358.994598 
	C910.146057,357.759766 911.287231,356.519501 912.718994,355.148254 
	C911.925110,356.341217 910.840698,357.665192 909.380615,358.994598 
z"/>
<path fill="#0EABE1" opacity="1.000000" stroke="none" 
	d="
M846.682739,257.021790 
	C845.935730,258.016663 844.815857,259.005920 843.370972,260.049744 
	C844.133972,259.074921 845.221924,258.045532 846.682739,257.021790 
z"/>
<path fill="#0EABE1" opacity="1.000000" stroke="none" 
	d="
M669.147339,349.862915 
	C669.129578,350.668060 668.879211,351.242065 668.628845,351.816101 
	C668.149109,351.337708 667.669373,350.859344 667.189636,350.381012 
	C667.764709,350.131287 668.339722,349.881531 669.147339,349.862915 
z"/>
<path fill="#0EABE1" opacity="1.000000" stroke="none" 
	d="
M758.305786,192.523895 
	C757.551697,192.529633 757.016602,192.324951 756.481567,192.120270 
	C756.616333,191.846497 756.751099,191.572708 756.885864,191.298935 
	C757.432190,191.637115 757.978577,191.975281 758.305786,192.523895 
z"/>
<path fill="#0EABE1" opacity="1.000000" stroke="none" 
	d="
M946.361450,304.991089 
	C946.799133,304.075989 947.611450,303.154083 948.703735,302.094604 
	C948.234497,302.966125 947.485291,303.975189 946.361450,304.991089 
z"/>
<path fill="#0EABE1" opacity="1.000000" stroke="none" 
	d="
M944.974976,308.704651 
	C944.755615,308.098907 944.549744,307.115417 944.674377,306.102112 
	C944.999451,306.823822 944.994019,307.575348 944.974976,308.704651 
z"/>
<path fill="#0EABE1" opacity="1.000000" stroke="none" 
	d="
M828.812500,453.100159 
	C828.626282,453.657166 828.363953,453.947876 828.101562,454.238586 
	C827.906494,453.716553 827.711365,453.194489 827.516235,452.672394 
	C827.922974,452.726196 828.329651,452.780029 828.812500,453.100159 
z"/>
<path fill="#0EABE1" opacity="1.000000" stroke="none" 
	d="
M886.087402,396.668518 
	C885.397827,396.563904 884.917664,396.285156 884.437439,396.006409 
	C884.629700,395.795776 884.967102,395.385498 884.992737,395.404144 
	C885.449951,395.736572 885.869324,396.121063 886.087402,396.668518 
z"/>
<path fill="#0EABE1" opacity="1.000000" stroke="none" 
	d="
M924.555786,356.643372 
	C924.688049,357.293701 924.628784,357.747314 924.569458,358.200928 
	C924.196045,358.001526 923.822510,357.802124 923.449036,357.602722 
	C923.754089,357.217346 924.059143,356.832001 924.555786,356.643372 
z"/>
<path fill="#0EABE1" opacity="1.000000" stroke="none" 
	d="
M852.401306,428.055054 
	C852.990479,427.842957 853.598877,427.908600 854.207214,427.974243 
	C854.141663,428.228180 854.037354,428.706879 854.016296,428.703247 
	C853.479065,428.610474 852.950500,428.467194 852.401306,428.055054 
z"/>
<path fill="#0EABE1" opacity="1.000000" stroke="none" 
	d="
M834.738892,268.070312 
	C834.591248,268.930878 834.089783,269.825439 833.294128,270.846375 
	C833.461731,270.016632 833.923401,269.060486 834.738892,268.070312 
z"/>
<path fill="#0EABE1" opacity="1.000000" stroke="none" 
	d="
M860.464050,420.610382 
	C860.348389,421.058472 860.066162,421.333130 859.766052,421.586548 
	C859.758362,421.593018 859.554077,421.366577 859.441467,421.248779 
	C859.726013,420.977234 860.010620,420.705688 860.464050,420.610382 
z"/>
<path fill="#0EABE1" opacity="1.000000" stroke="none" 
	d="
M869.464294,411.610077 
	C869.348694,412.058228 869.066406,412.332947 868.766296,412.586456 
	C868.758606,412.592926 868.554260,412.366516 868.441650,412.248718 
	C868.726196,411.977112 869.010803,411.705505 869.464294,411.610077 
z"/>
<path fill="#0EABE1" opacity="1.000000" stroke="none" 
	d="
M844.389648,437.464325 
	C843.941467,437.348663 843.666809,437.066345 843.413330,436.766174 
	C843.406860,436.758545 843.633240,436.554260 843.751038,436.441650 
	C844.022644,436.726227 844.294250,437.010803 844.389648,437.464325 
z"/>
<path fill="#0EABE1" opacity="1.000000" stroke="none" 
	d="
M875.610107,404.535828 
	C876.058167,404.651520 876.332764,404.933838 876.586304,405.233978 
	C876.592712,405.241638 876.366333,405.445953 876.248596,405.558594 
	C875.977051,405.273956 875.705444,404.989319 875.610107,404.535828 
z"/>
<path fill="#0EABE1" opacity="1.000000" stroke="none" 
	d="
M719.300659,402.958191 
	C719.002441,402.553162 719.002441,402.110077 719.002441,401.334717 
	C719.520020,401.235291 720.037537,401.468109 720.555115,401.700958 
	C720.236389,402.107361 719.917664,402.513763 719.300659,402.958191 
z"/>
<path fill="#0EABE1" opacity="1.000000" stroke="none" 
	d="
M837.604126,444.045410 
	C837.208862,444.286560 836.815735,444.284851 836.424744,444.254669 
	C836.413757,444.253815 836.426208,443.949005 836.427795,443.785950 
	C836.820679,443.790131 837.213562,443.794342 837.604126,444.045410 
z"/>
<path fill="#0EABE1" opacity="1.000000" stroke="none" 
	d="
M821.389893,460.464294 
	C820.941711,460.348541 820.666992,460.066254 820.413574,459.765991 
	C820.407104,459.758270 820.633545,459.553955 820.751404,459.441406 
	C821.022949,459.726044 821.294556,460.010681 821.389893,460.464294 
z"/>
<path fill="#0EABE1" opacity="1.000000" stroke="none" 
	d="
M932.954529,348.604004 
	C932.713440,348.208679 932.715088,347.815491 932.745300,347.424500 
	C932.746155,347.413483 933.050964,347.425964 933.214050,347.427490 
	C933.209839,347.820465 933.205566,348.213440 932.954529,348.604004 
z"/>
<path fill="#0EABE1" opacity="1.000000" stroke="none" 
	d="
M819.001221,171.999374 
	C818.492249,171.697433 817.982056,171.396103 817.471863,171.094788 
	C817.652893,170.885223 817.833923,170.675659 818.015015,170.466095 
	C818.319458,170.788452 818.623840,171.110809 818.963135,171.717209 
	C818.997986,172.001266 819.000000,172.000000 819.001221,171.999374 
z"/>
<path fill="#0EABE1" opacity="1.000000" stroke="none" 
	d="
M768.463989,191.610352 
	C768.348389,192.058212 768.066406,192.332764 767.766418,192.586075 
	C767.758728,192.592560 767.554443,192.366287 767.441895,192.248566 
	C767.726257,191.977112 768.010681,191.705673 768.463989,191.610352 
z"/>
<path fill="#0EABE1" opacity="1.000000" stroke="none" 
	d="
M751.300293,196.955872 
	C751.002441,196.551407 751.002441,196.109512 751.002625,195.336273 
	C751.519531,195.237076 752.036255,195.469254 752.552979,195.701416 
	C752.234680,196.107086 751.916443,196.512772 751.300293,196.955872 
z"/>
<path fill="#0EABE1" opacity="1.000000" stroke="none" 
	d="
M939.609985,340.535889 
	C940.058105,340.651520 940.332886,340.933685 940.586365,341.233765 
	C940.592834,341.241455 940.366455,341.445831 940.248718,341.558472 
	C939.977112,341.273926 939.705444,340.989380 939.609985,340.535889 
z"/>
<path fill="#0EABE1" opacity="1.000000" stroke="none" 
	d="
M713.610229,391.535461 
	C714.058350,391.651245 714.333069,391.933655 714.586670,392.233917 
	C714.593079,392.241516 714.366577,392.445892 714.248779,392.558533 
	C713.977173,392.273804 713.705566,391.989075 713.610229,391.535461 
z"/>
<path fill="#0EABE1" opacity="1.000000" stroke="none" 
	d="
M913.336365,354.963745 
	C913.469482,354.372223 913.919556,353.735535 914.687866,353.058289 
	C914.555237,353.651367 914.104248,354.284973 913.336365,354.963745 
z"/>
<path fill="#0EABE1" opacity="1.000000" stroke="none" 
	d="
M916.610413,363.535461 
	C917.058472,363.651184 917.333069,363.933472 917.586548,364.233673 
	C917.593018,364.241333 917.366638,364.445679 917.248901,364.558289 
	C916.977295,364.273651 916.705750,363.989014 916.610413,363.535461 
z"/>
<path fill="#0EABE1" opacity="1.000000" stroke="none" 
	d="
M688.219238,370.837463 
	C688.000000,370.999390 687.501221,370.998535 687.251831,370.998047 
	C687.426941,370.487274 687.851501,369.976990 688.276001,369.466675 
	C688.330139,369.869629 688.384277,370.272614 688.219238,370.837463 
z"/>
<path fill="#0EABE1" opacity="1.000000" stroke="none" 
	d="
M908.604004,373.045563 
	C908.208740,373.286682 907.815552,373.284973 907.424561,373.254822 
	C907.413635,373.253967 907.426086,372.949219 907.427673,372.786163 
	C907.820557,372.790375 908.213501,372.794556 908.604004,373.045563 
z"/>
<path fill="#0EABE1" opacity="1.000000" stroke="none" 
	d="
M901.045654,379.395660 
	C901.286743,379.790955 901.284912,380.184143 901.254761,380.575165 
	C901.253906,380.586182 900.949219,380.573730 900.786133,380.572205 
	C900.790344,380.179199 900.794617,379.786255 901.045654,379.395660 
z"/>
<path fill="#0EABE1" opacity="1.000000" stroke="none" 
	d="
M704.219788,387.844116 
	C703.677917,387.897064 703.417297,387.710083 703.110352,387.218689 
	C703.484497,386.831116 703.966492,386.662231 704.448547,386.493317 
	C704.445557,386.892181 704.442566,387.291016 704.219788,387.844116 
z"/>
<path fill="#0EABE1" opacity="1.000000" stroke="none" 
	d="
M891.395752,388.954590 
	C891.791016,388.713440 892.184265,388.715149 892.575256,388.745270 
	C892.586182,388.746124 892.573730,389.050903 892.572144,389.213959 
	C892.179199,389.209778 891.786316,389.205597 891.395752,388.954590 
z"/>
<path fill="#0EABE1" opacity="1.000000" stroke="none" 
	d="
M838.126831,304.149902 
	C838.299316,304.109894 838.569336,304.314453 838.959229,304.746155 
	C838.794250,304.780304 838.509338,304.587372 838.126831,304.149902 
z"/>
<path fill="#005790" opacity="1.000000" stroke="none" 
	d="
M843.382202,309.022400 
	C843.037170,308.553375 843.034729,308.106750 843.045898,307.325134 
	C848.428040,301.887146 853.820312,296.808746 859.153931,291.669403 
	C861.398438,289.506653 863.466797,287.161316 865.705688,284.992340 
	C872.588440,278.324615 879.485352,271.670990 886.437134,265.075500 
	C889.702820,261.977234 896.369507,261.922791 899.561279,265.090027 
	C912.768616,278.196106 925.845886,291.433472 939.087524,304.504547 
	C942.245605,307.621979 940.530334,309.926331 938.313477,312.104828 
	C926.148865,324.058533 913.936157,335.963959 901.668884,347.812317 
	C896.279602,353.017578 887.748535,352.121521 881.201233,345.642487 
	C870.185791,334.741974 859.284180,323.726471 848.292419,312.801849 
	C846.900269,311.418304 845.253601,310.290894 843.382202,309.022400 
z"/>
<path fill="#01ABE6" opacity="1.000000" stroke="none" 
	d="
M750.264404,202.793945 
	C748.902039,202.668442 747.801575,202.337112 746.350586,202.002884 
	C747.402893,201.333328 748.805786,200.666672 750.604370,200.000000 
	C750.842102,200.862701 750.684204,201.725403 750.264404,202.793945 
z"/>
</svg>