<svg version="1.1" id="Laag_1" xmlns:x="&ns_extend;" xmlns:i="&ns_ai;" xmlns:graph="&ns_graphs;"
	 xmlns="http://www.w3.org/2000/svg" xmlns:xlink="http://www.w3.org/1999/xlink" x="0px" y="0px" width="546px" height="312px"
	 viewBox="0 0 546 312" style="enable-background:new 0 0 546 312;" xml:space="preserve">
<metadata>
	<sfw  xmlns="&ns_sfw;">
		<slices></slices>
		<sliceSourceBounds  bottomLeftOrigin="true" height="81.8" width="324.9" x="110.6" y="115.1"></sliceSourceBounds>
	</sfw>
</metadata>
<g>
	<path d="M217.7,193.5c0-3.3,0-6.5,0-9.8c0,0-0.1,0-0.1,0c-0.1,0.1-0.2,0.2-0.2,0.3c-2.8,6.2-7.6,9.8-14.3,10.8
		c-8.3,1.3-16-0.3-22.9-5.4c-5.3-4-8.6-9.3-10.1-15.7c-1.6-6.8-1.4-13.5,1.1-20.1c3.6-9.2,10.4-14.8,19.9-17.1
		c4.7-1.1,9.5-1.1,14.2,0.1c5.4,1.5,9.3,4.8,11.7,9.8c0.1,0.3,0.3,0.5,0.5,0.8c0-3.2,0-6.5,0-9.6c0.1-0.1,0.1-0.1,0.1-0.2
		c0,0,0,0,0.1,0c0.2,0,0.4-0.1,0.7-0.1c4.7,0,9.4,0,14.1,0c0.1,0,0.2,0,0.3,0.1c0,18.6,0,37.3,0,56
		C227.8,193.5,222.8,193.5,217.7,193.5z M200.6,182.1c0.3,0,1,0,1.6-0.1c0.4,0,0.8-0.1,1.2-0.2c5.2-0.9,9.1-3.6,11.5-8.3
		c2.5-5,2.5-10.2,0.3-15.4c-1.6-3.7-4.4-6.4-8.2-7.9c-2.1-0.9-4.3-1.2-6.6-1.3c-6.2-0.1-11.4,3.1-13.8,8.8c-2,4.7-2.1,9.5-0.5,14.4
		C188.3,178.4,193.6,182.1,200.6,182.1z"/>
	<path d="M342.6,195.3c-5.4-0.1-10.7-1-15.6-3.4c-8.4-4.2-13.5-10.9-15.3-20.1c-1.2-6.2-0.8-12.3,1.7-18.2
		c3.3-7.9,9.2-13.1,17.2-15.9c4.5-1.6,9.1-2.1,13.8-1.9c4.4,0.2,8.7,0.9,12.8,2.8c9.4,4.2,15.1,11.4,16.9,21.5
		c1,5.8,0.5,11.6-1.7,17.1c-3.3,8-9.1,13.3-17.2,16.2C351,194.7,346.9,195.2,342.6,195.3z M358.5,165.5c0-1.7-0.2-3.3-0.6-4.8
		c-1.3-4.6-3.9-8.2-8.3-10.3c-3.1-1.4-6.3-1.8-9.6-1.3c-4.7,0.7-8.4,3-10.8,7.2c-3.3,6-3.3,12.2-0.1,18.2c1.9,3.5,4.9,5.8,8.7,6.9
		c2.5,0.7,5,0.8,7.6,0.4c5-0.8,8.7-3.5,11.1-7.9C358,171.3,358.5,168.4,358.5,165.5z"/>
	<path d="M435.4,193.6c-5.2,0-10.4,0-15.6,0c0-0.4,0-0.7,0-1.1c0-9.2,0-18.3,0-27.5c0-2.6-0.2-5.1-0.8-7.6c-0.2-0.6-0.4-1.2-0.6-1.8
		c-1.3-3.3-3.8-5.1-7.2-5.7c-2.3-0.4-4.5-0.3-6.8,0.3c-3.7,0.9-6.4,3.1-8.2,6.5c-1.2,2.3-1.9,4.9-2.2,7.5c-0.2,1.8-0.3,3.7-0.3,5.5
		c0,7.5,0,15.1,0,22.6c0,0.4,0,0.7,0,1c-0.7,0.2-14.7,0.2-15.6,0c0-18.6,0-37.3,0-55.9c0.7-0.2,14-0.2,15.2,0c0.1,1.1,0,2.2,0,3.3
		c0,1.1,0,2.2,0,3.2c0,1.1,0,2.2,0,3.3c0.1,0,0.1,0,0.2,0.1c0.1-0.2,0.3-0.5,0.4-0.7c1.1-2,2.4-3.8,4-5.4c2.7-2.6,5.9-4.2,9.5-5
		c4.5-0.9,8.9-0.8,13.3,0.5c6.4,1.8,10.6,6.1,12.8,12.4c1,2.8,1.5,5.6,1.7,8.5c0.1,1.7,0.1,3.5,0.1,5.2c0,9.9,0,19.7,0,29.6
		C435.4,192.8,435.4,193.1,435.4,193.6z"/>
	<path d="M307.6,175.3c0.1,0,0.2,0.1,0.3,0.1c0.6,0.2,0.8,0.5,0.8,1.2c0,4,0,8,0,12.1c0,0.6-0.2,1-0.7,1.3
		c-3.1,2.2-6.5,3.6-10.2,4.4c-6.8,1.4-13.6,1.4-20.3-0.8c-10.9-3.4-17.3-10.9-19.4-22.1c-1-5.6-0.7-11.1,1.1-16.4
		c3-8.8,9-14.6,17.8-17.5c3.7-1.3,7.6-1.8,11.6-1.8c4.9,0,9.6,0.6,14.2,2.4c1.9,0.8,3.6,1.8,5.3,3c0.4,0.3,0.5,0.6,0.5,1
		c0,4.1,0,8.2,0,12.3c0,0.4,0,0.8-0.5,1c-0.5,0.2-0.8,0.1-1.2-0.2c-1.5-1.3-3.1-2.4-4.9-3.3c-3.6-2-7.5-2.9-11.6-2.8
		c-2,0-3.9,0.2-5.8,0.8c-5.3,1.5-8.8,5-10.4,10.3c-1.1,3.6-1,7.3,0.1,10.9c1.7,5.5,5.4,9,11,10.2c6.8,1.5,13.2,0.4,19-3.6
		C305.5,176.9,306.5,176.1,307.6,175.3z"/>
	<path d="M144.7,196.9c-0.8,0-1.6,0-2.5,0c-10.5-19.7-21.1-39.5-31.7-59.4c0.3,0,0.5-0.1,0.7-0.1c5.6,0,11.2,0,16.8,0
		c0.6,0,0.8,0.3,1,0.8c4.2,8.9,8.5,17.7,12.7,26.6c0.5,1.1,1,2.2,1.6,3.2c0.1,0.2,0.2,0.4,0.4,0.8c0.2-0.4,0.4-0.7,0.5-1
		c4.7-9.9,9.5-19.7,14.2-29.6c0.3-0.6,0.6-0.8,1.3-0.8c5.2,0,10.4,0,15.6,0c0.3,0,0.6,0,1.1,0C165.8,157.3,155.3,177.1,144.7,196.9z
		"/>
	<path d="M254,193.5c-5.2,0-10.3,0-15.5,0c0-26.2,0-52.3,0-78.4c5.2,0,10.3,0,15.5,0C254,141.2,254,167.3,254,193.5z"/>
</g>
</svg>
